<?xml version="1.0" encoding="utf-8"?>
<!-- Generator: Adobe Illustrator 24.3.0, SVG Export Plug-In . SVG Version: 6.00 Build 0)  -->
<svg version="1.1" xmlns="http://www.w3.org/2000/svg" xmlns:xlink="http://www.w3.org/1999/xlink" x="0px" y="0px"
	 viewBox="0 0 900 600" style="enable-background:new 0 0 900 600;" xml:space="preserve">
<style type="text/css">
	.st0{fill:#FFFFFF;}
	.st1{fill:#D10707;}
	.st2{fill:#0707D1;}
	.st3{fill:#75161A;}
	.st4{fill:#FFD806;}
	.st5{stroke:#000000;stroke-miterlimit:10;}
	.st6{fill:#D10707;stroke:#000000;stroke-width:2;stroke-miterlimit:10;}
	.st7{fill:#D10707;stroke:#D10707;stroke-width:10;stroke-miterlimit:10;}
	.st8{fill:#FFCC05;stroke:#000000;stroke-width:0.35;stroke-miterlimit:10;}
	.st9{fill:none;stroke:#000000;stroke-width:0.35;stroke-miterlimit:10;}
	.st10{fill:#FFFFFF;stroke:#000000;stroke-width:0.35;stroke-miterlimit:10;}
	.st11{stroke:#000000;stroke-width:0.35;stroke-miterlimit:10;}
	.st12{fill:#FFCD05;}
	.st13{fill:#FFFFFF;stroke:#FFFFFF;stroke-width:0.35;stroke-miterlimit:10;}
	.st14{fill:#D10707;stroke:#000000;stroke-width:0.35;stroke-miterlimit:10;}
	.st15{fill:#FFD806;stroke:#000000;stroke-width:0.35;stroke-miterlimit:10;}
	.st16{fill:#75161A;stroke:#000000;stroke-width:0.35;stroke-miterlimit:10;}
	.st17{fill:none;stroke:#D10707;stroke-width:10;stroke-miterlimit:10;}
</style>
<g id="Warstwa_1">
	<g id="Flaga_Konzarz_2">
		<rect id="White_FFFFFF_" y="401.4" class="st0" width="900" height="198.6"/>
		<rect id="Red_D10707_" y="200.3" class="st1" width="900" height="201.1"/>
		<rect id="Black_000000_" width="900" height="200.3"/>
		<polygon id="Blue_0707D1_" class="st2" points="0,0 449.5,300 0,600 		"/>
	</g>
	<g id="Herb_Konzarz">
		<g id="Herb_Konzarz-2">
			<g id="Korona_Herb_Crown_">
				<rect x="101.7" y="147.6" class="st3" width="29.5" height="42.1"/>
				<rect x="107.1" y="140.3" class="st3" width="80.4" height="48.3"/>
				<rect x="90.3" y="152.5" class="st3" width="29.5" height="22.4"/>
				<rect x="183" y="151.1" class="st3" width="29.5" height="22.4"/>
				<rect x="123.2" y="143.4" class="st3" width="80.4" height="48.3"/>
				<path class="st4" d="M146.9,145.1c-5.4,3.1-11.6,4.9-17.9,5c-9.9,0-30.8,0-32.8,7.9c-1.2,5.2-1.5,10.6-1,15.9l-4,1
					c-4.8-4.6-6.7-11.5-5-17.9c3-11,13.9-9.9,20.9-9.9s35.8,1,39.7-5L146.9,145.1z"/>
				<path class="st4" d="M158.8,145.1c5.4,3.1,11.6,4.9,17.9,5c9.9,0,30.8,0,32.8,7.9c1.2,5.2,1.5,10.6,1,15.9l4,1
					c4.8-4.6,6.7-11.5,5-17.9c-3-10.9-13.9-9.9-20.9-9.9s-35.8,1-39.7-4.9L158.8,145.1z"/>
				<polygon class="st4" points="162.8,113.3 154.1,114.3 156.6,107.3 152.9,107.3 149.1,107.3 151.6,114.3 142.9,113.3 
					142.9,120.3 151.6,118.3 149.1,125.2 152.9,125.2 156.6,125.2 154.1,118.3 162.8,120.3 				"/>
				<path class="st5" d="M91.1,175.5l-0.2-0.2c-0.1-0.1-8.2-7.3-5.1-18.4c2.9-10.5,12.6-10.4,19.7-10.3h1.6c0.7,0,1.6,0,2.7,0
					c9.1,0.1,33.2,0.4,36.6-4.8l0.9-1.4v4.9l-0.2,0.1c-5.5,3.2-11.8,4.9-18.1,5c-9.1,0-30.4,0-32.3,7.6c-1.2,5.2-1.5,10.5-1,15.7
					l0.1,0.4L91.1,175.5z M103.7,147.6c-6.5,0-14.5,0.7-17,9.6c-1.7,6.2,0.1,12.7,4.6,17.2l3.3-0.8c-0.5-5.2-0.2-10.5,1-15.6
					c2.1-8.3,23.2-8.3,33.3-8.3c6.1-0.1,12.1-1.8,17.4-4.8v-1.5c-5.7,4.6-27.1,4.4-36.5,4.3h-2.7h-1.6
					C104.9,147.6,104.3,147.6,103.7,147.6L103.7,147.6z"/>
				<path class="st5" d="M214.6,175.5l-4.7-1.2l0.1-0.4c0.5-5.3,0.2-10.6-1-15.7c-1.9-7.6-23.2-7.6-32.3-7.6
					c-6.4-0.1-12.6-1.8-18.1-5l-0.2-0.1v-4.9l0.9,1.4c3.4,5.1,27.5,4.9,36.6,4.8c1.1,0,2,0,2.8,0h1.6c7.1-0.1,16.9-0.2,19.7,10.3
					c3,11.1-5,18.3-5.1,18.4L214.6,175.5z M211,173.5l3.3,0.8c4.5-4.5,6.3-11,4.7-17.2c-2.7-9.8-12-9.6-18.8-9.6h-1.6
					c-0.7,0-1.6,0-2.7,0c-9.5,0.1-30.8,0.3-36.5-4.3v1.4c5.3,3,11.3,4.6,17.4,4.8c10.1,0,31.2,0,33.3,8.3
					C211.2,163,211.5,168.3,211,173.5z"/>
				<path class="st4" d="M146.9,144.1c0,0-20.9-6-24.8-2s0,21.9,6,27.8l-6,3c0,0-18.9-11.9-19.9-23.8s14.9-22.8,44.7-7V144.1z"/>
				<path class="st4" d="M158.8,144.1c0,0,20.9-6,24.8-2s0,21.9-6,27.8l6,3c0,0,18.9-11.9,19.9-23.9s-14.9-22.8-44.7-7V144.1z"/>
				<path class="st5" d="M122,173.5l-0.2-0.1c-0.8-0.5-19.1-12.2-20.1-24.2c-0.4-4.9,2-9.6,6.2-12.1c4.1-2.7,16.1-7.6,39.3,4.7
					l0.3,0.1v3l-0.6-0.2c-5.7-1.6-21.3-5.2-24.3-2.1c-3.8,3.8,0.1,21.2,6,27.1l0.5,0.5L122,173.5z M120.5,134.7
					c-6.2,0-10.1,1.8-12.1,3.1c-3.9,2.4-6.1,6.7-5.7,11.2c0.9,10.8,17.2,21.9,19.4,23.3l5.1-2.6c-6-6.7-9.5-24-5.5-28
					c3.8-3.8,21.1,0.7,24.7,1.7v-1.1C135.2,136.5,126.7,134.7,120.5,134.7L120.5,134.7z"/>
				<path class="st5" d="M183.7,173.5l-6.8-3.4l0.5-0.5c5.9-5.9,9.7-23.4,6-27.1c-3.1-3.1-18.6,0.5-24.4,2.1l-0.6,0.2v-2.9l0.3-0.1
					c23.1-12.3,35.2-7.4,39.3-4.7c4.2,2.6,6.5,7.3,6.1,12.2c-1,12-19.3,23.7-20.1,24.2L183.7,173.5z M178.5,169.8l5.1,2.6
					c2.2-1.4,18.5-12.5,19.4-23.3c0.4-4.5-1.8-8.9-5.7-11.2c-3.9-2.6-15.5-7.3-38,4.6v1c3.6-1,20.9-5.5,24.7-1.7
					C188,145.8,184.5,163.1,178.5,169.8z"/>
				<path class="st4" d="M159.8,140.1c-0.7-3.7-4.3-4.1-6-4c-0.6,0-1.3,0-1.9,0c-1.7,0-5.3,0.3-6,4c-1,5,2,16.9,1,20.9s2,7.9,2,7.9
					l4-1l4,1c0,0,3-4,2-7.9S160.8,145.1,159.8,140.1z"/>
				<path class="st5" d="M157,169.5l-4.2-1l-4.2,1l-0.2-0.3c-0.1-0.2-3.1-4.2-2.1-8.4c0.5-1.9,0-5.8-0.5-9.6
					c-0.5-4.2-1-8.6-0.5-11.2c0.8-4.2,4.8-4.5,6.5-4.5c0.6,0,1.2,0,1.9,0c1.7,0,5.7,0.3,6.5,4.5c0.5,2.6,0,7-0.5,11.2
					c-0.5,3.8-0.9,7.8-0.5,9.6c1,4.2-1.9,8.2-2.1,8.4L157,169.5z M152.8,167.4l3.8,0.9c0.6-0.9,2.5-4.1,1.7-7.3c-0.5-2,0-5.9,0.5-10
					s1-8.4,0.5-10.9c-0.7-3.3-3.7-3.7-5.5-3.6h-1.9c-1.8-0.1-4.9,0.4-5.5,3.6c-0.5,2.4,0,6.7,0.5,10.9s1,8,0.5,10
					c-0.8,3.1,1.1,6.3,1.7,7.3L152.8,167.4z"/>
				<path class="st5" d="M157.3,125.7h-8.9l2.4-6.8l-8.4,1.9v-8.1l8.5,1l-2.4-6.9h8.9l-2.4,6.9l8.5-1v8.1l-8.4-1.9L157.3,125.7z
					 M149.8,124.7h6.1l-2.6-7.1l9,2v-5.8l-8.9,1l2.5-7h-6l2.5,7l-8.9-1v5.8l9-2L149.8,124.7z"/>
				<circle class="st4" cx="152.8" cy="131.2" r="7.9"/>
				<path class="st5" d="M152.8,139.6c-4.7,0-8.4-3.8-8.4-8.4c0-4.7,3.8-8.5,8.4-8.5c4.7,0,8.4,3.8,8.4,8.4l0,0
					C161.3,135.8,157.5,139.6,152.8,139.6z M152.8,123.7c-4.1,0-7.5,3.3-7.4,7.5c0,4.1,3.3,7.5,7.5,7.4c4.1,0,7.5-3.3,7.4-7.5
					C160.3,127.1,157,123.7,152.8,123.7C152.9,123.7,152.8,123.7,152.8,123.7z"/>
				<path class="st4" d="M214.5,171.9c-3-2-4,2-8,1s-6,1-6,3s-4-1-6,2s-6,3-4,6s6,6,0,6s-9.9-6-8-7.9s8,0,7-5s-5,0-5-2s3-5,0-6
					s0-4-4-3s-6,5-5,6s-3,0-5,2s-2,4,1,5s9.9,5,0,8s-15.9-5-13.9-5c2.3,0,3.3,1.3,7.5-2.1c2.5-2.1,2.4-5.2-0.3-7
					c-2.1-1.4-3.8-2.4-6.2-0.8c-3,2,4-4,1-6s-2,0-4-2l-3-3l-3,3c-2,2-1,0-4,2s4,8,1,6c-2.4-1.6-4.1-0.7-6.2,0.8
					c-2.7,1.9-2.8,5-0.3,7c4.2,3.4,5.2,2.1,7.5,2.1c2,0-4,8-13.9,5s-3-7,0-8s3-3,1-5s-6-1-5-2s-1-5-5-6s-1,2-4,3s0,4,0,6s-4-3-5,2
					s5,3,7,5s-2,7.9-7.9,7.9s-2-3,0-6s-2-3-4-6s-6,0-6-2s-2-4-6-3s-5-3-8-1s-1,6,3,6s6,5,6,7.9s3,8,4,9.9s-4,1-2,4c5,4,4,9,4,9
					c9.9,3.5,29.4,3.6,39.8,3.3c4.6-0.1,9.2-0.1,13.8,0c10.4,0.3,29.9,0.3,39.8-3.3c0,0-1-5,4-9c2-3-3-2-2-4s4-7,4-9.9s2-7.9,6-7.9
					S217.4,173.9,214.5,171.9z"/>
				<path class="st5" d="M137.9,212.6c-10.6,0-24.2-0.6-32-3.4l-0.4-0.1l0.1-0.4c0-0.2,0.8-4.7-3.8-8.5l-0.1-0.1
					c-0.5-0.5-0.6-1.2-0.5-1.9c0.2-0.8,1-1.1,1.6-1.3c0.3-0.1,0.8-0.3,0.9-0.5c0-0.1,0-0.2-0.1-0.3c-0.2-0.3-0.4-0.8-0.7-1.2
					c-1.3-2.5-3.4-6.3-3.4-8.9s-1.8-7.4-5.5-7.4c-2.1,0.1-4-1.1-4.8-3.1c-0.4-1.5,0.2-3,1.5-3.8c1.8-1.2,3-0.5,4.2,0.2
					c1.1,0.8,2.5,1.1,3.9,0.8c1.7-0.6,3.7-0.3,5.2,0.7c0.9,0.7,1.4,1.7,1.4,2.8c0,0.1,0,0.1,0,0.2c0.1,0.1,0.8,0,1.2,0
					c1.3-0.1,3.3-0.4,4.6,1.5c0.7,0.9,1.6,1.7,2.6,2.3c1.4,1,2.9,1.9,1.4,4.2c-0.4,0.7-0.9,1.3-1.4,1.9c-0.8,1-1.8,2.3-1.6,2.8
					c0.1,0.1,0.4,0.6,2.6,0.6c3.3,0,6.2-1.9,7.7-4.8c0.4-0.7,0.4-1.6-0.1-2.3c-0.9-0.6-1.9-1-3-1c-1.5-0.2-3-0.5-3.8-1.6
					c-0.5-0.9-0.6-1.9-0.4-2.8c0.1-1,0.6-1.9,1.4-2.5c1-0.3,2-0.2,2.9,0.3c0.2,0.1,0.4,0.2,0.6,0.2c-0.1-0.7-0.3-1.4-0.6-2
					c-0.5-1.1-1-2.3-0.5-3.2c0.3-0.6,0.8-1,1.5-1.2c0.8-0.2,1.3-0.8,1.2-1.6c0-0.5,0.2-1,0.6-1.3c0.5-0.3,1.2-0.3,2.4,0
					c2.5,0.6,4.6,2.4,5.5,4.9c0.2,0.5,0.2,1.1,0,1.6c0.1,0,0.3,0,0.4,0.1c1.6,0,3.1,0.6,4.3,1.6c1.2,1.2,1.7,2.4,1.5,3.5
					s-1.1,1.8-2.7,2.3c-2,0.6-4.8,2.3-4.8,3.8c0,1.1,1.7,2.2,4.8,3.2c4.1,1.4,8.6,0.7,12-2c0.7-0.5,1.3-1.2,1.6-2
					c-0.4,0-0.8,0.1-1.2,0.1c-1.6,0.2-3,0.4-6.5-2.4c-2.1-1.5-2.6-4.3-1.2-6.4c0.4-0.6,0.9-1,1.5-1.4c1.9-1.3,3.6-2.2,5.7-1.3
					c-0.8-1.2-1.7-2.7-1.5-4c0.1-0.6,0.4-1.1,0.9-1.4c1.5-1,2.1-1.1,2.6-1.1c0.2,0,0.4,0,1.3-0.9l3.4-3.3l3.3,3.3
					c0.9,0.9,1,0.9,1.3,0.9c0.5,0,1.1,0.1,2.6,1.1c0.5,0.3,0.8,0.9,0.9,1.5c0.2,1.3-0.7,2.8-1.5,4c2.1-0.9,3.9,0.1,5.7,1.3
					c2.2,1.3,3,4.1,1.7,6.3c-0.3,0.6-0.8,1.1-1.4,1.5c-3.4,2.8-4.9,2.6-6.5,2.4c-0.4-0.1-0.8-0.1-1.2-0.1c0.4,0.8,0.9,1.5,1.6,2
					c3.4,2.7,7.9,3.4,12,2c3.1-0.9,4.8-2.1,4.8-3.2c0-1.5-2.9-3.2-4.8-3.8c-1.5-0.5-2.4-1.3-2.6-2.3s0.3-2.3,1.5-3.5
					c1.2-1,2.7-1.5,4.3-1.5c0.2,0,0.3,0,0.5-0.1c-0.2-0.5-0.3-1.1-0.1-1.6c0.9-2.5,2.9-4.3,5.5-4.9c0.8-0.3,1.6-0.3,2.4,0
					c0.4,0.3,0.6,0.8,0.6,1.3c0,0.8,0.5,1.4,1.2,1.6c0.6,0.2,1.2,0.6,1.5,1.2c0.4,1-0.1,2.1-0.5,3.2c-0.3,0.6-0.5,1.3-0.6,2
					c0.2-0.1,0.4-0.1,0.6-0.2c0.9-0.5,1.9-0.6,2.9-0.3c0.8,0.6,1.4,1.5,1.4,2.5c0.3,1,0.1,2-0.4,2.8c-0.8,1.1-2.3,1.4-3.8,1.6
					c-1.1,0-2.1,0.4-2.9,1c-0.5,0.5-0.5,1.3-0.1,2.3c1.4,2.9,4.4,4.8,7.7,4.8c2.2,0,2.6-0.4,2.6-0.6c0.2-0.5-0.8-1.7-1.6-2.8
					c-0.5-0.6-1-1.2-1.4-1.9c-1.5-2.3,0-3.2,1.4-4.2c1-0.6,1.9-1.4,2.6-2.3c1.3-1.9,3.3-1.7,4.6-1.5c0.4,0.1,1.1,0.1,1.2,0
					c0-0.1,0-0.1,0-0.2c0-1.1,0.5-2.1,1.4-2.8c1.5-1,3.4-1.3,5.2-0.7c1.3,0.3,2.8,0,3.9-0.8c1.2-0.7,2.4-1.4,4.2-0.2
					c1.3,0.8,1.9,2.3,1.5,3.8c-0.8,2-2.7,3.2-4.8,3.1c-3.6,0-5.5,4.8-5.5,7.5s-2,6.4-3.4,8.9c-0.3,0.5-0.5,0.9-0.7,1.2
					c-0.1,0.1-0.1,0.2-0.1,0.3c0.1,0.2,0.5,0.4,0.9,0.5c0.7,0.3,1.4,0.6,1.6,1.3c0.1,0.7-0.1,1.4-0.5,1.9l-0.1,0.1
					c-4.7,3.7-3.8,8.3-3.8,8.5l0.1,0.4l-0.4,0.1c-9.9,3.6-29.3,3.6-40,3.3c-4.6-0.1-9.2-0.1-13.8,0
					C143.6,212.5,140.9,212.6,137.9,212.6z M106.7,208.4c9.9,3.4,28.8,3.4,39.3,3.1c4.6-0.1,9.2-0.1,13.8,0
					c10.5,0.3,29.4,0.3,39.3-3.1c-0.2-3.5,1.3-6.9,4.1-9c0.2-0.3,0.3-0.6,0.3-1c-0.1-0.3-0.6-0.5-1.1-0.7s-1.2-0.5-1.4-1.1
					c-0.1-0.4-0.1-0.8,0.1-1.1c0.2-0.3,0.4-0.8,0.7-1.3c1.2-2.3,3.3-6.1,3.3-8.4c0-3.5,2.3-8.4,6.5-8.4c1.7,0.1,3.2-0.8,3.8-2.4
					c0.3-1-0.2-2.2-1.1-2.7c-1.3-0.9-2-0.4-3.2,0.2c-1.3,0.9-3,1.2-4.6,0.9c-1.4-0.5-3-0.3-4.3,0.5c-0.6,0.5-1,1.2-1,2
					c0,0.3-0.1,0.7-0.4,0.9c-0.5,0.4-1.2,0.3-2,0.2c-1.3-0.1-2.8-0.3-3.7,1.1c-0.8,1-1.7,1.9-2.8,2.6c-1.6,1.1-2.1,1.5-1.1,2.8
					c0.4,0.6,0.9,1.2,1.4,1.8c1.2,1.5,2.2,2.8,1.7,3.8c-0.4,0.8-1.5,1.1-3.5,1.1c-3.7,0-7-2.1-8.6-5.4c-0.6-1.1-0.5-2.4,0.3-3.4
					c1-0.8,2.2-1.2,3.5-1.2c1.3-0.2,2.6-0.4,3.1-1.2c0.4-0.6,0.4-1.4,0.2-2.1c0-0.7-0.4-1.3-0.9-1.8c-0.6-0.3-1.4,0.1-2,0.3
					s-1.2,0.5-1.6,0.2c-0.3-0.2-0.4-0.5-0.4-0.9c0.1-0.8,0.3-1.7,0.7-2.4c0.4-0.9,0.8-1.9,0.5-2.4c-0.2-0.3-0.5-0.6-0.9-0.7
					c-1.1-0.3-1.9-1.2-1.9-2.3c0-0.4-0.1-0.6-0.2-0.7s-0.4-0.2-1.6,0.1c-2.2,0.5-4,2.1-4.8,4.2c-0.1,0.5-0.1,0.9,0,0.9
					c0.2,0.2,0.4,0.5,0.3,0.8c-0.2,0.5-0.7,0.5-1.5,0.6c-1.3,0-2.6,0.4-3.7,1.3c-1,1-1.4,1.9-1.2,2.6s1.2,1.3,2,1.6
					c1.9,0.6,5.6,2.5,5.5,4.8c0,1.7-1.8,3-5.5,4.1c-7,2.1-12.1-1.1-14-3.2c-0.5-0.5-1.2-1.5-0.9-2.2c0.1-0.3,0.5-0.5,0.8-0.5
					c0.5,0,1,0.1,1.5,0.1c1.4,0.2,2.6,0.4,5.7-2.2c1.7-1.1,2.1-3.4,1-5c-0.3-0.5-0.8-0.9-1.3-1.2c-2-1.4-3.5-2.2-5.6-0.8
					c-0.6,0.4-1,0.7-1.4,0.3s-0.1-0.7,0.5-1.5c0.7-1,2.1-2.9,1.9-4.1c-0.1-0.3-0.2-0.6-0.5-0.8c-1.4-0.9-1.8-0.9-2.1-0.9
					c-0.6,0-0.9-0.1-2-1.1l-2.6-2.6l-2.6,2.6c-1,1-1.4,1.1-2,1.1c-0.3,0-0.7,0-2.1,0.9c-0.3,0.2-0.5,0.4-0.5,0.8
					c-0.2,1.2,1.1,3,1.9,4c0.6,0.8,0.8,1.1,0.5,1.5s-0.8,0.1-1.4-0.3c-2.1-1.4-3.6-0.6-5.6,0.8c-1.8,1-2.4,3.2-1.5,4.9
					c0.3,0.5,0.7,1,1.2,1.3c3.1,2.6,4.3,2.4,5.7,2.2c0.5-0.1,1-0.1,1.5-0.1c0.3,0,0.7,0.2,0.8,0.5c0.3,0.7-0.4,1.7-0.9,2.2
					c-1.9,2.2-7,5.3-14,3.2c-3.7-1.1-5.5-2.4-5.5-4.1c0-2.3,3.6-4.1,5.5-4.8c0.8-0.3,1.8-0.8,2-1.6s-0.3-1.6-1.2-2.6
					s-2.6-1.2-3.7-1.3c-0.9-0.1-1.4-0.1-1.5-0.6c-0.1-0.3,0-0.6,0.3-0.8c0.1-0.1,0.2-0.4,0-0.9c-0.8-2.1-2.6-3.7-4.8-4.2
					c-1.2-0.3-1.5-0.2-1.6-0.1s-0.2,0.3-0.2,0.7c0,1.1-0.8,2.1-1.9,2.4c-0.4,0.1-0.7,0.3-0.9,0.6c-0.3,0.6,0.2,1.5,0.5,2.4
					c0.4,0.7,0.6,1.6,0.7,2.4c0,0.3-0.1,0.7-0.4,0.9c-0.4,0.3-1,0.1-1.6-0.2s-1.5-0.6-2-0.3c-0.5,0.4-0.9,1.1-0.9,1.8
					c-0.2,0.7-0.1,1.4,0.2,2.1c0.5,0.8,1.8,1,3.1,1.2c1.3,0.1,2.5,0.5,3.5,1.2c0.8,1,0.9,2.3,0.3,3.4c-1.6,3.3-4.9,5.4-8.6,5.4
					c-2.1,0-3.2-0.4-3.5-1.1c-0.5-1,0.5-2.3,1.7-3.8c0.5-0.6,0.9-1.2,1.4-1.8c0.9-1.4,0.4-1.8-1.1-2.8c-1.1-0.7-2.1-1.5-2.8-2.6
					c-0.9-1.4-2.4-1.2-3.7-1.1c-0.8,0.1-1.5,0.2-2-0.2c-0.3-0.2-0.4-0.6-0.4-0.9c0-0.8-0.4-1.5-1-2c-1.3-0.8-2.9-1-4.3-0.5
					c-1.6,0.4-3.3,0.1-4.6-0.9c-1.1-0.6-1.9-1.1-3.2-0.2c-0.9,0.6-1.3,1.7-1,2.7c0.6,1.5,2.2,2.5,3.8,2.4c4.2,0,6.4,5,6.4,8.4
					c0,2.4,2,6.2,3.3,8.4c0.3,0.5,0.5,0.9,0.7,1.3c0.2,0.3,0.2,0.7,0.1,1.1c-0.2,0.6-0.8,0.8-1.4,1.1s-1,0.4-1.1,0.7
					c0,0.4,0.1,0.7,0.3,1C105.4,201.5,107,204.9,106.7,208.4L106.7,208.4z"/>
				<path class="st5" d="M106.7,199.8l-0.1-1c0.5,0,55.1-3.9,91.5,0l-0.1,1C161.7,195.8,107.2,199.7,106.7,199.8z"/>
				<circle class="st6" cx="152.9" cy="198.8" r="5.7"/>
				<path class="st5" d="M152.8,205c-3.4,0-6.2-2.8-6.2-6.2s2.8-6.2,6.2-6.2s6.2,2.8,6.2,6.2l0,0C159,202.2,156.3,205,152.8,205z
					 M152.8,193.5c-2.9,0-5.3,2.3-5.3,5.3c0,2.9,2.3,5.3,5.3,5.3c2.9,0,5.3-2.3,5.3-5.3c0,0,0,0,0,0l0,0
					C158.1,195.9,155.8,193.5,152.8,193.5C152.8,193.5,152.8,193.5,152.8,193.5L152.8,193.5z"/>
				<circle class="st6" cx="107.9" cy="198.8" r="5.7"/>
				<path class="st5" d="M107.9,205c-3.4,0-6.2-2.8-6.2-6.2c0-3.4,2.8-6.2,6.2-6.2c3.4,0,6.2,2.8,6.2,6.2c0,0,0,0,0,0l0,0
					C114.1,202.2,111.3,205,107.9,205z M107.9,193.5c-2.9,0-5.3,2.3-5.3,5.2c0,2.9,2.3,5.3,5.2,5.3c2.9,0,5.3-2.3,5.3-5.2
					c0,0,0,0,0,0l0,0C113.2,195.9,110.8,193.5,107.9,193.5C107.9,193.5,107.9,193.5,107.9,193.5L107.9,193.5z"/>
				<circle class="st6" cx="127" cy="198.8" r="5.7"/>
				<path class="st5" d="M127,205c-3.4,0-6.2-2.8-6.2-6.2c0-3.4,2.8-6.2,6.2-6.2c3.4,0,6.2,2.8,6.2,6.2c0,0,0,0,0,0l0,0
					C133.2,202.2,130.4,205,127,205z M127,193.5c-2.9,0-5.3,2.3-5.3,5.2c0,2.9,2.3,5.3,5.2,5.3c2.9,0,5.3-2.3,5.3-5.2c0,0,0,0,0,0
					l0,0C132.3,195.9,129.9,193.5,127,193.5C127,193.5,127,193.5,127,193.5L127,193.5z"/>
				<circle class="st6" cx="197.8" cy="198.8" r="5.7"/>
				<path class="st5" d="M197.8,205c-3.4,0-6.2-2.8-6.2-6.2c0-3.4,2.8-6.2,6.2-6.2c3.4,0,6.2,2.8,6.2,6.2c0,0,0,0,0,0l0,0
					C204,202.2,201.2,205,197.8,205z M197.8,193.5c-2.9,0-5.3,2.3-5.3,5.3c0,2.9,2.3,5.3,5.3,5.3c2.9,0,5.3-2.3,5.3-5.3c0,0,0,0,0,0
					l0,0C203.1,195.9,200.7,193.5,197.8,193.5C197.8,193.5,197.8,193.5,197.8,193.5L197.8,193.5z"/>
				<circle class="st6" cx="178.7" cy="198.8" r="5.7"/>
				<path class="st5" d="M178.7,205c-3.4,0-6.2-2.8-6.2-6.2c0-3.4,2.8-6.2,6.2-6.2c3.4,0,6.2,2.8,6.2,6.2c0,0,0,0,0,0l0,0
					C184.9,202.2,182.1,205,178.7,205z M178.7,193.5c-2.9,0-5.3,2.3-5.3,5.2c0,2.9,2.3,5.3,5.2,5.3c2.9,0,5.3-2.3,5.3-5.2
					c0,0,0,0,0,0l0,0C183.9,195.9,181.6,193.5,178.7,193.5C178.7,193.5,178.7,193.5,178.7,193.5L178.7,193.5z"/>
			</g>
			<g id="Herb_Arms_">
				<path id="Tło_Czerwone_Red_Background_" class="st7" d="M53,210.4v194.4c0.1,12.4,9.5,21.3,11.1,22.8c4.4,4.1,9.8,7,15.7,8.4
					c2.7,0.6,5.5,0.9,8.3,0.8h48.2c3.4,0,8.7,1.8,15,11.7l0.8,1.1l0.8-1.1c6.2-9.8,11.6-11.6,15-11.7H216c2.8,0.1,5.6-0.2,8.3-0.8
					c5.9-1.4,11.3-4.3,15.7-8.4c1.6-1.5,10.9-10.4,11.1-22.8V210.4H53z"/>
				<g id="Tło_Czarne_Background_Black_">
					<path id="Tło_Background_PD" d="M151.9,445.8V319.9h97v85c-0.1,10-6.8,17.7-9.5,20.3c-5.8,5.6-13.4,8.9-21.4,9.5h-50.9
						c-6.3,0.3-11.1,5.9-12.8,8c-0.7,0.8-1.3,1.6-1.9,2.5L151.9,445.8z"/>
					<rect id="Tło_Background_LG" x="55.1" y="212.5" width="96.8" height="107.4"/>
				</g>
			</g>
			<g id="Godło_Konzarz_Coat_of_arms_of_Konzarz_">
				<g id="Logo_Konzarz">
					<path id="Obramowanie_Border_" class="st1" d="M72.6,242.4v44.4c0,1.3,1.1,2.3,2.4,2.3c0,0,0,0,0,0l11.7-0.8
						c1.7-0.1,2.3-1.2,2.3-3.3c0,1.8,1.4,3.3,3.2,3.3h38.1c1.1,0.1,2.1-0.8,2.1-1.9c0,0,0,0,0-0.1v-13.3c0.1-1.2-0.8-2.3-2-2.3
						c0,0-0.1,0-0.1,0h-7l10.9-16.6l0.1-0.1c0.3-0.5,0.5-1.1,0.5-1.7l-1.2-11.5c-0.2-1.1-1.2-1.9-2.3-1.8h-27.1v14.2
						c0,1.3,1,2.3,2.3,2.3h5.7l-9.5,18.1l-4.8-11.7l6.4-12.5v-10.5H92.1c-0.8,0-1.4,0.7-1.8,1.4l-2,3.3v-2.3
						c0.1-1.2-0.8-2.3-2.1-2.3H86l-11,0.6c-1.3,0-2.4,1.1-2.4,2.4c0,0,0,0,0,0l0,0C72.6,242.3,72.6,242.3,72.6,242.4z"/>
					<path id="K" class="st0" d="M75.6,242.7v43.5l10.5-0.8v-12.1l6.8,12.3h11.3L94.4,262l10.1-19.9H92.9l-7.4,12.7l-0.2-12.7
						L75.6,242.7z"/>
					<path id="Z" class="st0" d="M107.1,242.1h23.8l1,10.1l-14,21.4h11.9v11.9h-24v-11.3l11.5-21.4h-10.1V242.1z"/>
					<path id="Obramowanie-2_Border-2_" class="st1" d="M171.7,354.5v44.4c0,1.3,1,2.3,2.3,2.3c0,0,0,0,0,0l11.7-0.8
						c1.7-0.1,2.3-1.2,2.3-3.3c0,1.8,1.4,3.3,3.1,3.3c0,0,0,0,0,0h38.1c1.1,0.1,2.1-0.8,2.1-1.9c0,0,0,0,0,0l0,0c0-0.1,0-0.1,0-0.2
						v-13.1c0.1-1.2-0.8-2.2-2-2.3c0,0-0.1,0-0.1,0h-7l10.9-16.6l0.1-0.1c0.3-0.5,0.5-1.1,0.5-1.7l-1.2-11.5
						c-0.2-1.1-1.2-1.9-2.3-1.8h-27.1v14.2c0,1.3,1,2.3,2.3,2.3h5.6l-9.6,18.1l-4.9-11.7l6.4-12.5v-10.5h-12.1
						c-0.8,0.1-1.5,0.6-1.8,1.4l-2,3.3v-2.3c0.1-1.2-0.8-2.2-2-2.3h-0.3L174,352C172.7,352,171.6,353.1,171.7,354.5L171.7,354.5
						C171.7,354.4,171.7,354.5,171.7,354.5z"/>
					<path id="K-2" class="st0" d="M174.6,354.9v43.5l10.5-0.8v-12.1l6.9,12.3h11.3l-9.7-23.6l10.1-19.9h-11.7l-7.4,12.7l-0.2-12.7
						L174.6,354.9z"/>
					<path id="Z-2" class="st0" d="M206.2,354.3h23.8l1,10.1l-14,21.4h11.9v11.9h-24v-11.3l11.5-21.4h-10.1V354.3z"/>
				</g>
				<g id="Godło_Polski_By_Konzarz_Coat_of_arms_of_Poland_By_Konzarz_">
					<g id="Godło_Polski_Polish_coat_of_arms_LD">
						<g id="Nogi_Legs_">
							<g id="Noga_Leg_L">
								<path class="st8" d="M88.7,393.7l-0.5,0.9l0.5,0.2l-1.9,2.4l0.6,0.1l-2.3,2.5h0.8L84,402l0.4,0.3l-2,1.9
									c0.4-0.1,0.5,0,0.6,0c0.2,0.3-0.7,1.4-1.8,1.9c-0.5,0.2-1,0.3-1.5,0.3c-0.5,0.6-1.2,0.9-1.9,1.1c-0.6,0.2-1.2,0.2-1.7-0.1
									c-0.5-0.4-0.3-1-0.8-1.2c-0.2-0.1-0.2,0-1,0.1c-0.5,0.1-0.9,0.1-1.4,0c-0.4-0.1-0.5-0.2-0.7-0.1s-0.2,0.4-0.6,0.9
									s-0.4,0.3-0.6,0.7c-0.2,0.3-0.3,0.6-0.3,0.9c0,0.2-0.2,1,0.1,1.1s0.7-0.3,0.9-0.5s0.4-0.6,0.5-0.6s0.1,0.1,0.3,0.3
									c0.1,0.1,0.3,0.1,0.5,0.2c0.3,0,0.6,0,0.8-0.1c0.4-0.1,0.5-0.2,0.6-0.2s0.1,0.1,0.3,0.3s0.2,0.3,0.3,0.3s0.3,0,0.4,0.1
									c0,0.2,0,0.4-0.2,0.5c-0.2,0.1-0.5,0.2-0.8,0.1c-0.3,0-0.5-0.1-0.8-0.2l-0.4-0.2c-0.1-0.1-0.3-0.1-0.4-0.1
									c-0.2,0-0.4,0-0.6,0c-0.1,0-0.3,0.1-0.4,0.1c-0.5,0.2-1,0.6-1.2,1.1c-0.1,0.3,0,0.3-0.2,0.5s-0.4,0.3-0.5,0.5
									s-0.1,0.6,0.1,1c0.2,0.4,0.4,0.8,0.7,1.1c0.3,0.4,0.7,0.7,1.1,0.9c0.3,0.2,0.5,0.3,0.5,0.2c-0.1-0.3-0.2-0.6-0.3-0.9
									c0-0.2,0-0.4,0-0.5c0-0.2,0.1-0.3,0.2-0.4c0.1-0.1,0.3-0.2,0.5-0.3c0.5-0.2,0.5-0.1,0.7-0.2c0.2-0.1,0.3-0.3,0.4-0.5
									c0.1-0.1,0.1-0.2,0.2-0.2c0.2-0.1,0.3-0.1,0.5-0.1c0.4,0,0.7,0,1.1-0.2c0.3-0.1,0.6-0.3,0.8-0.6c0.1-0.2,0.2-0.4,0.4-0.5
									c0.1-0.1,0.2-0.1,0.3,0c0.2,0.1,0.1,0.4,0,0.5s-0.1,0.3-0.6,0.7c-0.3,0.3-0.6,0.5-0.9,0.7c-0.2,0.1-0.4,0.2-0.7,0.3
									c-0.2,0.1-0.4,0.2-0.6,0.3c-0.2,0.1-0.3,0.2-0.4,0.4c-0.3,0.5-0.5,1-0.5,1.6c-0.1,0.2-0.1,0.5,0,0.7
									c0.1,0.2,0.2,0.4,0.4,0.5c0.7,0.5,1.4,0.9,2.2,1.1c0.4,0.1,0.8,0.2,1.2,0.1c0.2,0,0.6-0.2,0.6-0.3s-0.4-0.1-0.8-0.4
									c-0.1-0.1-0.8-0.5-0.7-0.9c0-0.1,0.3-0.4,0.3-0.5c0.2-0.2,0.4-0.3,0.6-0.5c0.1-0.2,0.2-0.4,0.2-0.6c0-0.2,0-0.5,0-0.7
									c0-0.3,0-0.6,0.2-0.9c0.2-0.2,0.4-0.4,0.6-0.5c0.7-0.4,0.8-0.4,1-0.6c0.1-0.1,0,0,0.5-0.6c0.2-0.2,0.3-0.4,0.5-0.6
									c0.2-0.2,0.4-0.4,0.7-0.5c0.2-0.1,0.4-0.2,0.6-0.3c0.3-0.1,0.6-0.1,0.8-0.1c0.2,0,0.5,0.1,0.7,0.2c0.2,0.2,0.5,0.4,0.7,0.6
									c0.2,0.1,0.2,0.2,0.2,0.3c0.1,0.2,0,0.5-0.2,0.7c-0.3,0.1-0.6,0.2-0.8,0.1c-0.2-0.1-0.4-0.1-0.5-0.1c-0.1,0-0.3,0-0.4,0.1
									c-0.1,0.1,0.1,0.5,0.3,0.7s0.3,0.2,1,0.3c0.5,0.1,1,0.1,1.4,0.1c0.3,0,0.7-0.1,1-0.2c0.2-0.1,0.2-0.2,0.6-0.5
									s0.6-0.3,0.8-0.5c0.1-0.2,0.1-0.5,0.1-0.8c0-0.3,0-0.5,0-0.8c0-0.2-0.1-0.5-0.1-0.7c-0.1-0.2-0.2-0.4-0.4-0.6
									c-0.2-0.1-0.4-0.1-0.7-0.1c-0.4,0-0.4,0.2-0.8,0.3c-0.2,0.1-0.5,0.1-0.7,0c-0.2-0.1-0.4-0.3-0.5-0.6
									c-0.1-0.2-0.2-0.4-0.2-0.6c0-0.4,0.1-0.7,0.3-1c0.1-0.2,0.3-0.5,0.5-0.6l8.5-10.1L93,395l-2.8,1.1l-0.1-2.4L88.7,393.7z"/>
								<path class="st9" d="M76.6,415.7h-1.2c0,0.1-0.1,0.1-0.2,0.2c-0.2,0.1-0.7,0-1,0c-0.1,0-0.3,0.1-0.4,0.2h-0.2"/>
								<path class="st8" d="M72.6,413.1l-0.4-0.4c-0.2-0.1-0.3-0.3-0.5-0.4c-0.2-0.1-0.3-0.1-0.5-0.2c-0.1-0.1-0.2-0.2-0.2-0.4
									c-0.1-0.1-0.3-0.4-0.3-0.4"/>
								<path class="st8" d="M72.4,408.5c0-0.1,0-0.2-0.1-0.3c0-0.1-0.1-0.3-0.2-0.4c-0.1-0.2-0.1-0.2-0.2-0.4
									c-0.1-0.1-0.1-0.2-0.2-0.3l-0.1,0"/>
								<path class="st8" d="M84.2,410.7c0.2,0,0.4,0,0.5,0c0.2,0.1,0.3,0.5,0.5,0.7c0.1,0.1,0.2,0.1,0.3,0.1l1,0.1l0.3,0.2"/>
							</g>
							<g id="Noga_Leg_P">
								<path class="st8" d="M116.8,393.7l0.5,0.9l-0.5,0.2l1.9,2.4l-0.6,0.1l2.3,2.5h-0.8l1.9,2.1l-0.4,0.3l2,1.9
									c-0.4-0.1-0.5,0-0.6,0c-0.2,0.3,0.7,1.4,1.8,1.9c0.5,0.2,1,0.3,1.5,0.3c0.5,0.5,1.2,0.9,1.9,1.1c0.5,0.2,1.2,0.1,1.7-0.1
									c0.5-0.4,0.3-1,0.8-1.2c0.2-0.1,0.2,0,0.9,0.1c0.5,0.1,0.9,0.1,1.4,0c0.4-0.1,0.5-0.2,0.7-0.1s0.2,0.4,0.6,0.9
									s0.4,0.3,0.6,0.7c0.2,0.3,0.3,0.6,0.3,0.9c0,0.2,0.1,1-0.1,1.1s-0.7-0.3-0.9-0.5s-0.4-0.6-0.5-0.6s-0.1,0.1-0.3,0.3
									c-0.1,0.1-0.3,0.1-0.5,0.2c-0.3,0-0.6,0-0.9-0.1c-0.4-0.1-0.5-0.2-0.6-0.2s-0.1,0.1-0.3,0.3s-0.2,0.3-0.3,0.4
									s-0.3,0-0.4,0.1c-0.1,0.2,0,0.4,0.2,0.5c0.2,0.1,0.5,0.2,0.7,0.1c0.3,0,0.5-0.1,0.8-0.2c0.1,0,0.2-0.1,0.4-0.2
									c0.1-0.1,0.3-0.1,0.4-0.1c0.2,0,0.4,0,0.6,0c0.1,0,0.3,0.1,0.4,0.1c0.5,0.2,1,0.6,1.2,1.1c0.1,0.3,0,0.3,0.2,0.5
									s0.4,0.3,0.5,0.5s0,0.6-0.1,1c-0.1,0.4-0.4,0.8-0.6,1.1c-0.3,0.4-0.7,0.6-1.1,0.9c-0.3,0.2-0.5,0.3-0.5,0.2
									c0.1-0.3,0.2-0.6,0.4-0.9c0-0.2,0-0.4,0-0.5c0-0.2-0.1-0.3-0.2-0.4c-0.1-0.1-0.3-0.2-0.5-0.3c-0.5-0.2-0.5-0.1-0.7-0.2
									c-0.2-0.1-0.3-0.3-0.4-0.5c-0.1-0.1-0.1-0.2-0.2-0.2c-0.2-0.1-0.3-0.1-0.5-0.1c-0.4,0-0.7,0-1.1-0.2
									c-0.3-0.1-0.6-0.3-0.8-0.6c-0.1-0.2-0.2-0.4-0.4-0.5c-0.1-0.1-0.2-0.1-0.3,0c-0.2,0.1-0.1,0.4,0,0.5
									c0.1,0.3,0.3,0.5,0.6,0.7c0.3,0.3,0.6,0.5,0.9,0.6c0.2,0.1,0.4,0.2,0.6,0.3c0.2,0.1,0.4,0.2,0.6,0.3
									c0.2,0.1,0.3,0.2,0.4,0.4c0.3,0.5,0.4,1,0.5,1.6c0.1,0.2,0.1,0.5,0,0.7c-0.1,0.2-0.2,0.4-0.4,0.5c-0.7,0.5-1.4,0.9-2.2,1.1
									c-0.4,0.1-0.8,0.2-1.2,0.1c-0.2,0-0.6-0.2-0.6-0.3s0.4-0.1,0.9-0.4c0.1-0.1,0.8-0.5,0.7-0.9c-0.1-0.2-0.2-0.3-0.4-0.5
									c-0.3-0.3-0.5-0.3-0.6-0.5c-0.1-0.2-0.2-0.4-0.2-0.6c0-0.2,0-0.5,0-0.7c0-0.3,0-0.6-0.2-0.9c-0.2-0.2-0.4-0.4-0.6-0.5
									c-0.7-0.4-0.8-0.4-1-0.6c-0.2-0.2-0.4-0.4-0.5-0.6c-0.2-0.2-0.3-0.4-0.5-0.6c-0.2-0.2-0.4-0.4-0.7-0.5
									c-0.2-0.1-0.4-0.2-0.6-0.3c-0.3-0.1-0.6-0.1-0.8-0.1c-0.2,0-0.5,0.1-0.7,0.2c-0.2,0.2-0.5,0.4-0.7,0.6
									c-0.2,0.1-0.2,0.2-0.2,0.3c-0.1,0.2,0,0.5,0.2,0.7c0.3,0.1,0.6,0.2,0.8,0.1c0.2-0.1,0.3-0.1,0.5-0.1c0.1,0,0.3,0,0.4,0.1
									c0.1,0.1-0.1,0.5-0.3,0.8c-0.3,0.2-0.6,0.3-1,0.3c-0.5,0.1-1,0.1-1.4,0.1c-0.3,0-0.7-0.1-1-0.2c-0.2-0.1-0.4-0.3-0.6-0.5
									c-0.5-0.3-0.6-0.3-0.8-0.5c-0.1-0.2-0.1-0.5-0.1-0.7c0-0.3,0-0.5,0-0.8c0-0.2,0.1-0.5,0.1-0.7c0.1-0.2,0.2-0.4,0.4-0.6
									c0.2-0.1,0.4-0.2,0.7-0.1c0.3,0,0.4,0.2,0.8,0.3c0.2,0.1,0.5,0.1,0.7,0c0.2-0.1,0.4-0.3,0.5-0.6c0.1-0.2,0.2-0.4,0.2-0.6
									c0-0.4-0.1-0.7-0.3-1c-0.1-0.2-0.3-0.5-0.5-0.6l-8.6-10.1l0.5-0.8l2.8,1.1v-2.4L116.8,393.7z"/>
								<path class="st9" d="M128.8,415.7h1.2c0,0.1,0.1,0.1,0.2,0.2c0.2,0.1,0.7,0,0.9,0c0.1,0,0.3,0.1,0.4,0.2h0.2"/>
								<path class="st8" d="M132.8,413.1c0,0,0.3-0.3,0.4-0.4c0.2-0.1,0.3-0.3,0.5-0.4c0.2-0.1,0.3-0.1,0.4-0.2
									c0.1-0.1,0.2-0.2,0.2-0.4c0.1-0.1,0.3-0.4,0.3-0.4"/>
								<path class="st8" d="M133,408.5c0-0.1,0-0.2,0-0.3c0.1-0.1,0.1-0.3,0.2-0.4c0.1-0.2,0.1-0.2,0.2-0.4c0-0.1,0.1-0.2,0.2-0.3
									l0.1,0"/>
								<path class="st8" d="M121.2,410.7c-0.2,0-0.3,0-0.5,0c-0.2,0.1-0.3,0.5-0.5,0.7c-0.1,0.1-0.2,0.1-0.3,0.1l-1,0.1l-0.3,0.2"
									/>
							</g>
						</g>
						<g id="Orzeł_Eagle_">
							<path id="Skrzydła_Wings_" class="st10" d="M93.8,364.4c-1.1,0-2.3-0.1-3.4-0.3c-0.5-0.1-1-0.3-1.5-0.4
								c-0.4-0.1-0.7-0.2-1-0.4c-0.4-0.3-0.7-0.7-0.9-1.2c-0.1-0.2-0.3-0.9,0-1.1c0.2-0.1,0.4,0,0.7,0c0.6,0.2,1.3,0.2,1.9,0.2
								c0.6-0.1,1.1-0.3,1.5-0.6c0.5-0.4,0.9-0.9,1.2-1.4c0.6-1,0.9-2.1,1-3.2c0.2-2.1-0.2-4.3-1-6.3c-0.2-0.6-0.5-1.2-0.8-1.8
								c-1.8-2.9-4.2-5.3-7.1-7.1c-2.8-1.7-6-2.9-9.2-3.6c-3.4-0.9-7-1.5-10.6-1.6l0.2,0.4c1.1,2.2,2.7,4.1,4.7,5.5h-0.3
								c-1.6-0.1-3.1-0.3-4.6-0.6c-0.8,0-1.7,0-2.5,0c0,0.1,0.1,0.2,0.2,0.4c0.5,1.1,1.2,2,2.1,2.8c0.9,0.9,1.6,1.6,2.1,2.1h-0.3
								c-0.8-0.1-1.5-0.4-2-1c-0.5-0.4-1.2-1-2.2-1.7c-0.1,0.3-0.1,0.6,0,0.9c0.2,0.7,0.7,1.4,1.3,1.8c1.2,0.9,2.4,1.9,3.5,3h-0.3
								c-1.6,0.1-3.1,0.4-4.5,1.1v0.3c0.3,2.1,3.1,3.3,4.1,3.7h-0.5c-1.3,0-2.6-0.4-3.7-1c0,0.2,0,0.4,0.1,0.5
								c0.6,2.1,5,2.3,5.4,2.3l-0.9,0.2c-0.8,0.2-4.3,1.1-4.4,2.2c-0.2,1.4,5.3,3.1,5.8,3.3c-0.1,0.1-0.1,0.2-0.2,0.2
								c-0.4,0.4-1,0.5-1.5,0.5l-1.5,0.2c-0.5,0.1-1.1,0.1-1.7,0c-0.5-0.1-0.8-0.4-0.9-0.2s0.2,0.6,0.4,0.8c0.7,0.6,1.6,0.9,2.5,0.9
								h3.5l-0.3,0.3c-2.4,2-4.5,4.4-6,7.2l0.2,0.2c0.8,0.6,1.8,0.8,2.7,0.6l2.5-0.1l-0.1,0.1c-1,1.4-2.5,2.5-4.1,3.1
								c-0.4,0.1-0.8,0.3-1.2,0.4c-0.1,0.1-0.1,0.2-0.1,0.3c0,0.3,0.4,0.4,0.6,0.5c0.9,0.2,1.8,0,2.6-0.4c0.9-0.3,1.7-0.6,2.5-1.1
								c0.9-0.5,1.8-1.1,1.8-1c0,0.1-0.1,0.2-0.1,0.3c-0.1,0.2-0.2,0.3-0.3,0.5l-0.2,0.3l-0.2,0.4c-0.3,0.5-0.4,0.6-0.7,1
								c-0.1,0.1-0.1,0.1-0.4,0.8l-0.7,1.2c-0.4,0.8-0.4,0.7-0.5,1c-0.2,0.4-0.4,0.9-0.6,1.3c-0.2,0.5-0.1,0.6-0.3,1.1
								c-0.1,0.3-0.3,0.6-0.4,0.9c-0.1,0.3,0,0.4-0.2,1c0,0.2-0.1,0.2-0.2,0.6s-0.2,0.6-0.2,0.9c-0.2,0.7-0.2,1-0.3,1.2
								c0,0.3,0,0.7,0,1c0,0.9-0.3,1.3,0,1.5c0.1,0,0.1,0.1,0.2,0.1c1-0.1,2-0.4,2.8-0.9c1.2-0.6,2.3-1.3,3.3-2.1
								c0.2-0.2,0.4-0.4,1-0.9c1.2-1.1,0.9-0.8,1.4-1.2s0.8-0.8,0.9-0.7s-0.1,1-0.2,1.3c-0.1,0.4-0.2,0.7-0.4,1
								c-0.2,0.5-0.3,0.6-0.5,1s-0.2,0.5-0.4,1c-0.2,0.5-0.4,0.9-0.6,1.4c-0.3,0.4-0.5,0.8-0.8,1.2c-0.2,0.3-0.5,0.6-0.7,0.9
								c-0.4,0.4-0.6,0.5-0.6,0.6s0.9,0.4,1.6,0.1c0.4-0.1,0.7-0.4,1.5-1.3c0.6-0.7,1-1.2,1.4-1.6c0.3-0.3,0.6-0.7,0.8-1
								c0.2-0.4,0.5-0.8,0.7-1.2c0.3-0.5,0.9-1.5,1.1-1.5s0,0.2,0,0.9c0,0.6,0,1.1,0,1.7c0,0.1,0,0.5,0,1.3s0,1.1,0.1,1.4
								c0,0.4,0.1,0.8,0.1,1.1c0.1,0.4,0.2,0.8,0.3,1.1c0.6,2,0.5,3.9,1.2,4.2c0.9,0.3,2.6-2.3,3.3-3.4c0.8-1.2,1.4-2.4,1.9-3.8
								c1.1-2.6,1.4-4.9,1.6-4.9s0,0.2,0.1,0.7s0,0.9-0.1,1.3c-0.2,1.9-0.1,1.8-0.3,3.1c-0.1,0.8-0.2,1.7-0.4,2.5
								c0,0.1-0.1,0.4,0,0.4s0.3-0.1,0.5-0.3c0.5-0.5,0.9-1,1.3-1.6c0.8-2.1,1.2-4.3,1.2-6.5l0.8,1.7c0.2-0.1,0.3-0.2,0.5-0.4
								c0.6-0.5,1.1-1.1,1.5-1.8c0.5-0.8,0.9-1.6,1.2-2.5c0.3-0.8,0.6-1.6,0.9-2.4s0.6-1.9,0.8-2.8h0.5c0.8,0.1,1.6,0,2.4-0.1
								c0.6-0.1,1.1-0.3,1.6-0.6c0.1,0,0.2,0,0.3,0.1c0.1,0,1,0.3,1,0.9c0,0.2-0.1,0.6-0.3,0.6c-0.2,0-0.4,0-0.6-0.2l-1-0.4h-0.9
								l-0.9,0.3c-1.2,0.4-2,1.4-2.4,2.6c-0.1,0.4-0.2,0.7-0.2,1.1c0,0.6,0,1.2-0.2,1.8c-0.2,0.6-0.5,1.1-0.9,1.6
								c-0.7,0.8-1.4,1.6-2.2,2.3c0,0.1,0.1,0.3,0.2,0.3c0.2,0.1,0.4,0.2,0.6,0.1c-0.1,0.1-0.1,0.3-0.2,0.4c-0.5,0.8-1.3,1-1.2,1.2
								s0.4,0.2,0.5,0.4s-0.1,0.4-0.7,0.9c-0.3,0.2-0.7,0.5-1.2,0.9c0,0.1,0.1,0.2,0.2,0.2c0.3,0.3,0.5,0.3,0.6,0.4
								c0.1,0.4-2.1,1-2.1,1.6c0,0.3,0.8,0.6,1.3,0.7h2.4c0.2,0,0.3-0.1,0.4,0s0,0.2,0,0.7v0.6c0,0.2,0,0.4,0,0.6c0,0.1,0,0.3,0,0.4
								v0.2c0,0,0.1,0,0.5-0.1l0.5-0.2c0.2-0.1,0.3-0.1,0.5-0.2s0.5-0.2,0.7-0.4s0.5-0.3,0.7-0.3c0.1,0,0.2,0.1,0.3,0.1
								c0.1,0.1,0.1,0.1,0.3,0.4c0.1,0.1,0.2,0.2,0.3,0.4l0.3,0.2c0.4,0.3,0.4,0.4,0.7,0.7c0.2,0.1,0.4,0.2,0.6,0.3
								c0.3,0.1,0.5,0.2,0.8,0.3c0.4,0.1,0.5,0.2,0.5,0.1c-0.2-0.3-0.3-0.5-0.4-0.8c-0.1-0.2-0.1-0.5,0-0.7l0.1-0.8l0.5,0.2h0.5
								l-0.2-1.4c-0.1-0.6-0.1-1.2,0-1.8c0.3-2.1,1.4-4,3-5.4v0.6c-0.1,3.2-1,6.4-2.6,9.2c0.1,0,0.2,0.1,0.4,0.1
								c0.8,0,1.6-0.4,2.1-1.1c0,0.1,0,0.2,0.1,0.2c0.4,1.7-0.8,3.5-2,4.5c-0.4,0.4-0.9,0.6-1.4,0.7c-0.6,0.1-1.2-0.1-1.7-0.4
								l-0.2,0.2c-0.1,0.4-0.1,0.9,0,1.3c0,0.3,0.1,0.6,0.3,0.9c0.2,0.3,0.4,0.5,0.7,0.6c0.7,0.4,1.5,0.5,2.3,0.2
								c0.6-0.1,1.1-0.4,1.5-0.8c0,0.2-0.1,0.5-0.2,0.7c-0.5,1.2-1.4,2.2-2.7,2.7c-0.4,0.2-1.9,0.8-2.8,0.2
								c-0.3-0.2-0.5-0.4-0.7-0.7c-0.4-0.7-0.3-1.6,0.3-2.1c-0.4-0.1-0.8-0.1-1.2,0c-1.1,0.3-2,1.2-2.3,2.3c-0.2,0.6-0.2,1.2,0,1.8
								c0.5,1.6,2.8,2,3.4,2.1c1.1,0.1,2.1,0.1,3.2-0.3c1.1-0.3,2.1-0.8,2.9-1.4c0,0.2-0.1,0.3-0.1,0.5c-0.2,0.7-0.6,1.2-1.9,2.3
								c-0.7,0.7-1.5,1.2-2.3,1.6c-0.6,0.2-1.2,0.2-1.8,0c-0.3-0.2-0.6-0.4-0.9-0.7c-0.1-0.1-0.1-0.2-0.2-0.4
								c-0.2-0.4-0.2-0.9,0-1.3c-0.2,0-0.4,0-0.6,0c-0.9,0.2-1.7,1-1.9,1.9c-0.1,0.6-0.1,1.2,0.2,1.8c0.8,1.7,3.1,2.1,3.6,2.2
								c1.2,0.2,2.4,0,3.5-0.5c1.2-0.6,2.3-1.5,3.1-2.6c0.3-0.4,0.6-0.8,0.8-1.2c0,0.1,0,0.2,0,0.4c-0.1,0.5-0.1,1-0.2,1.5
								c-0.1,1.4,0.1,2.7,0.5,4c0.1,0.6,0.3,1.2,0.6,1.7c0.7,1.3,1,1.8,1,1.8s0,0.1,0.1,0.1c0.2,0.1,1.1-1.9,1.6-3.6
								c0.4-1.3,0.6-2.6,0.5-4c-0.1-0.5-0.1-1-0.2-1.5c0-0.2-0.1-0.3,0-0.4c0.3,0.4,0.6,0.8,0.9,1.2c0.8,1.1,1.9,2,3.1,2.6
								c1.1,0.5,2.3,0.7,3.4,0.5c0.5-0.1,2.8-0.4,3.6-2.2c0.6-1.3,0.1-2.9-1.2-3.5c-0.2-0.1-0.3-0.1-0.5-0.2c-0.4-0.1-0.5,0-0.6,0
								c-0.2,0.2,0.2,0.7,0,1.3c0,0.1-0.1,0.2-0.2,0.4c-0.2,0.3-0.5,0.6-0.9,0.7c-0.6,0.2-1.2,0.2-1.8,0c-0.9-0.4-1.7-0.9-2.3-1.6
								c-0.8-0.6-1.4-1.4-1.9-2.3c-0.1-0.2-0.2-0.4-0.1-0.5s1.3,0.9,2.9,1.4c1,0.3,2.1,0.4,3.1,0.3c0.6-0.1,2.8-0.5,3.4-2.1
								c0.2-0.6,0.2-1.2,0-1.8c-0.3-1.1-1.2-1.9-2.3-2.3c-0.5-0.2-1.1-0.2-1.2,0s0.5,0.4,0.6,1c0.1,0.4,0,0.8-0.2,1.1
								c-0.2,0.3-0.4,0.5-0.7,0.7c-1,0.6-2.3,0-2.8-0.2c-1.2-0.5-2.1-1.5-2.6-2.7c-0.3-0.5-0.2-0.7-0.2-0.7s0.6,0.5,1.5,0.8
								c0.8,0.2,1.6,0.1,2.3-0.2c0.3-0.2,0.5-0.4,0.7-0.6c0.1-0.3,0.2-0.6,0.3-0.9c0.2-0.4,0.2-0.9,0-1.3c-0.1-0.1-0.1-0.2-0.2-0.2
								c-0.5-0.3-1,0.4-1.7,0.4c-0.5,0-0.8-0.3-1.4-0.7c-1.2-1.2-1.9-2.8-1.9-4.5c0-0.1,0-0.2,0.1-0.2c0.3-0.2,1,1.2,2.1,1.1
								c0.2,0,0.3,0,0.4-0.1c0.8-0.7-1.9-5.2-2.6-9.1c-0.1-0.4-0.1-0.6,0-0.6c0.4-0.2,2.7,2.9,3,5.4c0.1,0.6,0.1,1.2,0,1.8
								c-0.2,0.7-0.4,1.2-0.2,1.4s0.4,0,0.5,0c0.3-0.1,0.4-0.3,0.5-0.2s0.1,0.2,0.1,0.8c0,0.2,0,0.5,0,0.7c-0.1,0.5-0.5,0.7-0.4,0.8
								s0.1,0,0.5-0.1l0.8-0.3c0.2-0.1,0.4-0.2,0.6-0.3c0.3-0.2,0.3-0.4,0.7-0.7l0.3-0.2l0.3-0.4c0.1-0.1,0.2-0.3,0.3-0.4
								c0.1-0.1,0.2-0.1,0.3-0.2c0.2,0,0.5,0.1,0.7,0.3c0.2,0.1,0.4,0.3,0.7,0.4c0.2,0.1,0.2,0.1,0.5,0.2s0.3,0.1,0.5,0.2
								s0.4,0.1,0.5,0.1s0-0.1,0-0.2c0-0.1,0-0.3,0-0.4v-0.5c0-0.2,0-0.4,0-0.6c0-0.5-0.1-0.6,0-0.7s0.1,0,0.4,0h2.1
								c0.5,0,1.3-0.3,1.3-0.7c0-0.6-2.1-1.2-2-1.6c0-0.1,0.3-0.1,0.6-0.4c0.1-0.1,0.2-0.2,0.2-0.2c0-0.3-0.5-0.4-1.2-0.9
								c-0.3-0.2-0.8-0.6-0.7-0.9s0.5-0.2,0.5-0.4s-0.5-0.5-1.2-1.2c0,0-0.2-0.3-0.2-0.4s0.3,0.1,0.5-0.1c0.1-0.1,0.2-0.2,0.2-0.3
								c0-0.6-1.2-1.1-2.2-2.3c-0.4-0.4-0.7-1-0.9-1.6c-0.1-0.5-0.1-0.7-0.2-1.9c0-0.4-0.1-0.7-0.2-1.1c-0.3-0.9-0.9-1.7-1.7-2.2
								c-0.2-0.1-0.4-0.2-0.7-0.3c-0.3-0.1-0.6-0.2-0.9-0.3c-0.3-0.1-0.6-0.1-0.9,0c-0.3,0.1-0.7,0.2-1,0.4
								c-0.3,0.1-0.4,0.2-0.5,0.2c-0.2-0.1-0.4-0.4-0.3-0.6c0,0,0.1-0.6,1-0.9l0,0l0.3-0.1c0.6,0.2,1.1,0.4,1.6,0.6
								c0.8,0.2,1.6,0.2,2.4,0.1c0.3,0,0.4-0.1,0.5,0c0.6,0.2,0.4,1.3,0.8,2.8c0.2,0.8,0.6,1.7,0.9,2.5c0.3,0.9,0.7,1.7,1.2,2.5
								c0.5,0.9,0.4,0.3,1.5,1.8c0.2,0.2,0.3,0.4,0.5,0.4c0.5,0,0.6-1.7,0.8-1.7s0.3,5.3,1.2,6.5c0.2,0.3,1.1,1.3,1.3,1.5l0,0
								c0.1,0,0.4,0.4,0.5,0.3s0-0.4,0-0.4c-0.2-0.8-0.3-1.7-0.3-2.5c-0.2-1.3-0.1-1.2-0.3-3.1c-0.1-0.4-0.1-0.9-0.1-1.3
								c0-0.5,0-0.7,0.1-0.7s0.5,2.2,1.6,4.9c0.5,1.3,1.2,2.6,1.9,3.8c0.5,0.8,2.4,3.7,3.3,3.4s0.9-3.2,1.2-4.2c0,0,0-0.1,0.1-0.3
								c0.1-0.3,0.1-0.5,0.2-0.8c0.1-0.4,0.1-0.8,0.1-1.1c0-0.3,0-0.6,0.1-1.4s0-1.2,0-1.3v-1.7c0-0.6-0.1-0.9,0-0.9
								s0.8,0.8,1.1,1.5c0.1,0.1,0.2,0.4,0.4,0.9c0,0,0.1,0.2,0.2,0.4c0.2,0.4,0.5,0.7,0.8,1.1c0.9,1,1.3,1.5,1.4,1.6
								c0.7,0.8,1.1,1.2,1.5,1.3c0.7,0.3,1.5,0.1,1.6-0.1s-0.2-0.2-0.6-0.6c-0.3-0.3-0.5-0.6-0.7-0.9c-0.3-0.4-0.6-0.8-0.8-1.2
								c-0.2-0.4-0.4-0.9-0.6-1.4c-0.2-0.5-0.2-0.5-0.4-1s-0.3-0.5-0.5-1c-0.2-0.3-0.3-0.7-0.4-1c-0.1-0.3-0.4-1.2-0.1-1.3
								s0.3,0.2,0.9,0.7s0.2,0.2,1.4,1.2c0.6,0.5,0.8,0.7,1,0.9c1,0.8,2.1,1.5,3.2,2.1c0.9,0.5,1.8,0.8,2.8,0.9c0.1,0,0.2,0,0.2-0.1
								c0.2-0.2-0.1-0.6,0-1.5c0-0.3,0-0.6,0-0.9V387c0-0.5-0.1-0.9-0.2-1.3c-0.1-0.5-0.1-0.5-0.2-0.9s-0.1-0.4-0.1-0.6
								c-0.1-0.5-0.1-0.6-0.2-0.9c-0.1-0.3-0.2-0.6-0.4-0.9c-0.1-0.4-0.2-0.7-0.3-1.1c-0.2-0.5-0.3-0.9-0.6-1.3
								c-0.1-0.3-0.1-0.2-0.5-1c-0.3-0.5-0.5-1.1-0.6-1.2c-0.1-0.3-0.3-0.5-0.4-0.8c-0.2-0.4-0.4-0.6-0.7-1l-0.2-0.4
								c-0.1-0.1-0.1-0.2-0.2-0.3c-0.2-0.3-0.2-0.4-0.3-0.6s-0.2-0.3-0.1-0.3c0.6,0.3,1.3,0.6,1.8,1c0.8,0.4,1.6,0.8,2.5,1.1
								c0.8,0.4,1.7,0.5,2.6,0.4c0.1-0.1,0.6-0.2,0.6-0.5c0-0.1,0-0.2-0.1-0.3c-0.3-0.4-0.9-0.3-1.2-0.3c-1.7,0-2.6-1.8-4.1-3.1
								c0,0-0.1-0.1-0.1-0.1c0.8-0.1,1.6,0,2.4,0.1c1.6,0,2.3-0.2,2.7-0.6c0.1-0.1,0.1-0.1,0.2-0.2c0.8-1.4-4.1-6.2-6-7.1
								c0,0-0.3-0.2-0.3-0.3s1.5,0.2,3.5,0c0.9,0,1.8-0.3,2.5-0.9c0.2-0.3,0.5-0.7,0.4-0.8s-0.4,0.1-0.9,0.2c-0.5,0.1-1.1,0.1-1.7,0
								c-0.6,0-0.4-0.1-1.5-0.2c-0.5,0-1.1-0.2-1.5-0.5c-0.1-0.1-0.2-0.2-0.2-0.2c-0.1-0.8,5.8-1.9,5.7-3.3c0-0.9-2.4-2-4.4-2.2
								c-0.4,0-0.9-0.1-0.9-0.2c0-0.4,4.4-0.4,5.4-2.3c0-0.1,0.2-0.4,0.1-0.5c-0.3-0.3-1.6,0.6-3.7,1c-0.1,0-0.5,0.1-0.5,0
								c-0.1-0.3,3.6-1.8,4.1-3.7c0-0.1,0-0.2,0-0.3c-0.2-0.9-2.8-1.4-4.5-1c-0.1,0-0.3,0.1-0.3,0s0.3-0.5,3.5-3
								c0.6-0.4,1.1-1,1.4-1.8c0-0.1,0.2-0.8,0-0.9s-0.6,0.4-2.2,1.7c-0.6,0.5-1.2,0.8-1.9,1c-0.2,0-0.3,0-0.3,0s0.8-0.8,2.1-2.1
								s0.3-0.5,2.1-2.8c0.1-0.1,0.2-0.3,0.2-0.4s-0.2-0.4-2.5,0c-1.5,0.1-3.1,0.3-4.6,0.6c-0.1,0-0.2,0.1-0.3,0
								c-0.2-0.3,2.4-2.8,4.6-5.5c0.1-0.1,0.2-0.3,0.2-0.4c-0.3-0.9-6.2,0.4-10.5,1.6c-3.8,1.1-6.2,1.8-9.1,3.7
								c-2.9,1.7-5.3,4.2-7,7.1c-0.3,0.6-0.6,1.2-0.8,1.8c-0.9,2-1.2,4.1-1,6.3c0.1,1.1,0.4,2.2,0.9,3.2c0.3,0.6,0.7,1.1,1.2,1.4
								c0.4,0.3,1,0.6,1.5,0.6c0.6,0,1.3,0,1.9-0.2c0.3-0.1,0.5-0.1,0.6,0c0.3,0.2,0,1,0,1.1c-0.2,0.5-0.6,0.9-1,1.2
								c-0.3,0.2-0.6,0.3-1,0.4c-0.5,0.2-1,0.3-1.4,0.4c-2.3,0.5-2.8,0.6-3.4,0.3l-0.1-0.1c-0.8-0.7-0.1-2.5-0.8-3.1
								c0,0-0.1-0.1-0.1-0.2c0-0.3,0.8-0.5,1.2-0.9c0,0,0.1-0.1,0.1-0.1s-0.1,0-0.3,0c-0.1,0-0.2-0.1-0.3-0.1
								c-0.7-0.4-1.2-1.1-1.4-1.9l0,0c-0.3-0.9-0.4-1.8-0.4-2.7c0-0.1,0-0.2,0.1-0.2c0.2-0.4,0.8-0.2,1-0.5s-0.5-0.9-0.9-1.7
								c-0.3-0.6-0.2-1.5,0-3.4c0.1-1.1,0.2-2.1,0.2-3.2c0-0.3-0.1-0.6-0.1-0.9c-0.1-0.3-0.1-0.6-0.2-0.9c-0.1-0.2-0.2-0.4-0.3-0.6
								c-0.1-0.1-0.2-0.2-0.2-0.2s0.2,0,0.5,0c0.3-0.1,0.5-0.2,0.7-0.4c0.2-0.2,0.3-0.5,0.3-0.8c0.1-0.4,0-0.9-0.2-1.3
								c-0.1-0.2-0.4-0.5-0.6-0.5s-0.1,0.3-0.3,0.5c-0.2,0.2-0.5,0.3-0.7,0.4c-0.1,0.1-0.3,0.1-0.4,0.1c-0.1,0-0.3,0-0.3,0
								s0.1-0.1,0.2-0.2c0.1-0.1,0.2-0.2,0.3-0.4c0.1-0.2,0.2-0.4,0.2-0.7c0-0.2,0-0.3-0.1-0.5c0-0.2-0.1-0.4-0.2-0.5
								c-0.1-0.2-0.2-0.5-0.4-0.5s-0.1,0.3-0.3,0.5c-0.2,0.2-0.4,0.3-0.7,0.4c-0.8,0.2-1.6,0.1-2.4-0.1c-0.1,0-0.3-0.1-0.6-0.1
								c-0.3,0-0.5,0-0.8,0c-0.3,0-0.5,0-0.8-0.1c-0.4,0-0.5-0.1-0.8-0.1c-0.5-0.1-0.9-0.1-1.4-0.1h-1.2c-0.3,0-0.5,0-0.8,0
								c-0.4,0.1-0.8,0.3-1.2,0.6c-0.4,0.5-0.5,1.1-0.2,1.7c0.2,0.2,0.3,0.1,0.8,0.2c0.3,0.1,0.6,0.3,0.9,0.5
								c0.4,0.2,0.8,0.5,1.1,0.9c0.3,0.3,0.3,0.4,0.5,0.6c0.3,0.2,0.6,0.3,1,0.3c0.5,0.1,0.9,0.4,1.3,0.6c0.3,0.2,0.7,0.5,0.9,0.8
								c0.5,0.4,0.9,0.8,1.1,1.3c0.1,0.3,0.2,0.6,0.1,0.9c0,0.1-0.1,0.3-0.3,0.4c-0.2,0.1-0.4,0.1-0.6,0c-0.2-0.1-0.3-0.2-0.4-0.3
								c-0.3-0.2-0.6-0.4-1-0.5c-0.7-0.2-1.6-0.2-1.6,0.1s0.9,0.5,1.5,1.6l0.1,0.2c0.3,0.7,0.3,1.6,0.1,2.3c-0.3,0.5-0.6,1-1,1.5
								c-0.2,0.3-0.4,0.5-0.7,0.7c-0.3,0.2-0.6,0.4-1,0.4c-0.3,0-0.5-0.1-0.6,0c-0.1,0.3-0.1,0.6,0.1,0.9c0.2,0.3,0.5,0.3,0.7,0.7
								c0,0.1,0,0.1,0,0.2c0.1,0.7-1.6,2.8-3.8,3c-0.4,0-0.8,0-0.9,0.2s0.3,0.9,0.8,1.3c0.2,0.1,0.3,0.2,0.3,0.3s-0.4,0.4-0.7,0.8
								c-0.4,0.7-0.6,1.4-0.8,2.1c-0.1,0.4-0.1,0.7-0.4,0.8C94.4,364.4,94.1,364.4,93.8,364.4"/>
							<g id="Efekty_Effects_">
								<polyline class="st9" points="102.8,418 102.8,413.7 101.4,411.2 100.3,412.9 								"/>
								<polyline class="st9" points="102.8,413.7 104,411.2 104.8,412.6 								"/>
								<polyline class="st9" points="104,411.3 104.8,407.1 104.8,402.2 103.5,400.7 102.8,401.4 102.1,400.7 100.7,402.2 
									100.8,407.2 101.1,408.9 101.5,411.5 								"/>
								<line class="st9" x1="102.8" y1="409.7" x2="102.8" y2="401.4"/>
								<line class="st9" x1="104.8" y1="407.3" x2="106.2" y2="408.6"/>
								<line class="st9" x1="100.8" y1="407.2" x2="99.3" y2="408.5"/>
								<line class="st9" x1="100.7" y1="402.2" x2="99.3" y2="403.2"/>
								<line class="st9" x1="104.8" y1="402.2" x2="106.3" y2="403.3"/>
								<polyline class="st9" points="103.5,400.7 104.5,397.5 104.6,394.6 103.1,392.1 102.4,392.1 100.9,394.6 100.9,396.9 
									101.6,399.4 102.1,400.7 								"/>
								<line class="st9" x1="102.8" y1="398.2" x2="102.8" y2="392.1"/>
								<path class="st9" d="M103,391.9l1.3-3l1-2v-3l0.6-3.5l0.5-1.8c0.1-0.2,0.2-0.5,0.2-0.7l0.1-0.4"/>
								<polyline class="st9" points="106.3,376.8 105.4,376.4 104.8,376.6 103.6,376.6 103,376.1 102.2,376.5 101,376.6 
									100.6,376.3 100,376.7 99.8,376.8 99,376.5 								"/>
								<path class="st9" d="M100.5,388.1"/>
								<polyline class="st9" points="98.6,377.2 98.7,378 98.9,379 99.1,380 99.3,380.8 99.5,381.9 99.6,383.1 99.8,384.1 
									100,385.9 100.1,387 102.4,392 								"/>
								<line class="st9" x1="101.2" y1="394.1" x2="99.9" y2="395.6"/>
								<line class="st9" x1="104.6" y1="394.5" x2="105.5" y2="395.6"/>
								<polyline class="st9" points="90,387 91.9,386.3 92.9,385.8 94,385 94.3,384.6 95,384.3 96.1,384.3 97,383.5 98.1,382.8 
																	"/>
								<polyline class="st9" points="89.3,388.9 90.6,388.9 91.9,388.6 93.1,387.7 94,387 94.3,386.7 95.4,386.6 96.7,386.3 
									97.6,385.8 98.4,384.9 								"/>
								<polyline class="st9" points="88,391.4 89.6,391.2 91,391.1 92.2,390.6 93.2,389.7 93.8,389 94.1,388.9 95.4,388.9 
									96.2,388.5 97.3,387.8 97.8,387.3 								"/>
								<polyline class="st9" points="96.4,395.3 95.6,394.2 95.1,393.1 95,391.9 95,390.5 								"/>
								<polyline class="st9" points="93.1,394.9 92.8,393.6 92.7,392.7 91.7,393.2 90.2,393.8 								"/>
								<polyline class="st9" points="92.7,392.9 91.9,393.7 91.2,394.7 91,394.9 								"/>
								<polyline class="st9" points="108.3,395.6 109.3,395.1 110.3,393.7 110.5,392.1 110.4,390.6 								"/>
								<line class="st9" x1="114.2" y1="394.8" x2="112.9" y2="392.9"/>
								<path class="st9" d="M115.3,393.7l-2.5-1l-0.5,2.2"/>
								<polyline class="st9" points="117.4,391.4 115.5,391.4 113.9,391 111.8,389.5 111.5,389 110,389 109.4,388.6 108.3,388.1 
									107.8,387.4 								"/>
								<path class="st9" d="M116.1,389l-0.8-0.1l-1.5-0.3l-1.4-1l-1.1-1h-0.9l-1-0.2l-0.9-0.5l-1.3-1.1"/>
								<polyline class="st9" points="115.2,387 113.8,386.7 112.4,386.1 111.1,384.6 109.9,384.6 108.5,383.7 107.4,382.9 								
									"/>
								<path class="st9" d="M98.9,376.4c0,0,0,0,0.2-0.2l1.9-1.9l1.2,0.5l1.7,0.1l1-0.6l1.6,2h0.1l1.7-2l-2-2.3l-1.2,0.7l-1.6-0.1
									l-1-0.6l-1.2,0.7h-1.5l-0.7-0.6l-0.4,1l-1,1.3L98.9,376.4"/>
								<polyline class="st9" points="97.7,374.3 97.1,373.9 96.4,372.4 96.1,370.8 95.4,371 95,369.6 95,368.5 95,366.9 
									94.7,366.7 94.6,365.9 94.6,364.4 94.7,364.2 								"/>
								<polyline class="st9" points="108.4,374.5 109.3,373.3 109.9,371.6 110.1,370.8 110.4,370.6 110.7,369.6 110.8,368.2 
									110.8,366.5 111.3,366.2 111.5,365.3 111.5,364.1 								"/>
								<polyline class="st9" points="95.9,370.9 97.7,368.3 99.5,369.3 100.8,369.3 102.4,368.3 104,369.3 105.5,369.3 
									107.4,368.3 110.1,370.6 								"/>
								<polyline class="st9" points="94.9,366.8 98.6,364.7 100.5,367.7 103.2,364.3 106.1,367.7 108,363.6 110.8,366.2 								
									"/>
								<polyline class="st9" points="96,364.2 98,360.8 98.9,360.6 101.2,358.6 101,360.4 100.6,361.7 100.5,365.5 								"/>
								<polyline class="st9" points="101,360.4 101.6,361.8 101.6,362.4 101.6,363.1 101.3,363.8 102.3,363.8 103.2,363.5 
									104,362.9 104.9,361.9 105.8,360.2 106.3,361.5 107.5,362.4 108.6,362.6 108.5,361.8 108.4,360.8 108.4,359.8 109.2,360.6 
									109.9,360.8 110.8,360.8 								"/>
								<line class="st9" x1="98" y1="360.8" x2="96.4" y2="360.5"/>
								<line class="st9" x1="106.1" y1="365.6" x2="105.6" y2="360.5"/>
								<line class="st9" x1="110.2" y1="364.1" x2="108.6" y2="360"/>
								<path class="st9" d="M103.7,354.2c-0.8,1.3-2.3,1.9-3.8,1.4"/>
								<path class="st9" d="M107.7,354c0.1,0.1,0.1,0.3,0.2,0.4c0.4,0.4,1,0.6,1.5,0.5h0.4"/>
								<path class="st9" d="M98,341.4c0.1-0.1,0.3-0.2,0.4-0.3c0.4-0.2,0.8-0.4,1.2-0.5c0.3-0.1,0.6-0.2,0.9-0.2
									c0.5-0.1,0.9-0.1,1.4,0c0.6,0.2,1.2,0.5,1.8,0.9c0.3,0.1,0.6,0.3,0.8,0.4c0.4,0.2,0.7,0.3,1.1,0.3"/>
								<path class="st9" d="M100,341c-0.1,0.9,0.5,1.7,1.3,2c0.3,0.1,0.5,0.1,0.8,0.1c0.4,0.1,0.9,0.1,1.3-0.1
									c0.3-0.3,0.6-0.6,0.8-1"/>
								<path class="st11" d="M100.8,341c0,0.2,0,0.5,0,0.6c0,0.2,0.1,0.5,0.2,0.6c0.1,0.1,0.2,0.1,0.3,0.2c0.2,0,0.4,0,0.6,0
									c0.3,0,0.5,0,0.8-0.1c0.1-0.1,0.2-0.2,0.3-0.3c0.1-0.1,0.1-0.2,0.1-0.4C103,341.2,101,341,100.8,341z"/>
								<path class="st12" d="M114.6,367.9"/>
								<path class="st13" d="M102.6,341.3l-0.2,0.2c0,0,0,0.3,0,0.4c0,0,0.1,0.1,0.2,0c0.1,0,0.2-0.1,0.2-0.2c0-0.1,0-0.2,0-0.2
									L102.6,341.3z"/>
								<path class="st8" d="M110.9,369.5c0.5,0,1.2,0,2.1-0.1c1.5-0.1,3-0.3,4.4-0.6c1.3-0.2,2.7-0.6,3.9-1.2
									c1.6-0.8,2.7-2.2,3.3-3.8c0.2-0.6,0.3-1.3,0.2-2l-1.1-0.9l-1,0.7c0,0.1,0,0.3,0,0.4c-0.1,2.1-2.1,3.6-2.7,3.8
									c-1.3,0.7-2.8,1.1-4.3,1.2l-4.9,0.3L110.9,369.5z"/>
								<path class="st8" d="M123.8,361l1.1,0.9h0.4c0.5,0,2.1-0.1,2.4-0.7s-0.6-1.9-2.2-3.2c0-0.4,0-0.8,0-1.2
									c-0.1-0.1-0.1-0.2-0.2-0.2c-1.3-1.6-1.5-1.7-1.6-1.7c-0.8-0.1-1.7,2.1-1.7,2.4c0,0.3,0,0.7,0,1h-0.2
									c-0.9,0.1-1.4,1.5-1.5,1.7c0,0.6,0,1.2,0,1.9h0.3l2.2-0.1L123.8,361z"/>
								<polyline class="st9" points="109.3,373.3 110.1,373.6 111.5,373.6 112.9,372.5 114.2,373.2 115.4,373.4 116.5,373 
									117.5,371.8 118.2,372.1 119,372.2 120.2,372.2 121.5,371.2 121.5,370.5 122.5,370.5 123.7,370.5 124.5,370.3 125.3,369.4 
									125.3,368 125.3,367.3 126.1,367.3 126.6,367 127.3,366.2 127.5,365.3 127.5,364 127.2,363.3 128.4,362.8 129.1,361.8 
									129.1,360.5 129,359.5 128.4,359 128,358.6 128.6,357.8 128.5,356.2 128.1,355.5 126.8,354.9 125.7,354.9 125.7,353.9 
									125,353 124.3,352.8 123.1,352.8 122.2,353.3 121.8,354.2 121.8,354.9 121.8,355.1 120.2,355.1 119.2,356 118.9,356.5 
									119,358.1 119.3,358.4 119.7,359 119.4,359.6 118.9,360.1 118.4,360.6 118.3,360.9 								"/>
								<line class="st9" x1="111.5" y1="373.6" x2="112.2" y2="376.6"/>
								<line class="st9" x1="114.2" y1="373.2" x2="116.1" y2="382.1"/>
								<line class="st9" x1="117.5" y1="371.8" x2="118.7" y2="376.3"/>
								<line class="st9" x1="121.7" y1="370.5" x2="124.1" y2="374.3"/>
								<line class="st9" x1="125.4" y1="367.5" x2="129.1" y2="369.9"/>
								<line class="st9" x1="127.2" y1="363.4" x2="131.6" y2="364.6"/>
								<line class="st9" x1="128" y1="358.6" x2="132" y2="358.3"/>
								<line class="st9" x1="126.5" y1="355" x2="129.8" y2="352.6"/>
								<polyline class="st9" points="124.2,349.2 123.1,351 123.1,352.9 								"/>
								<polyline class="st9" points="117.8,384.9 117.9,382.9 117.7,377.7 118.7,378.5 120,384.7 120.2,385.3 								"/>
								<polyline class="st9" points="127.3,366.1 128.1,366.6 128.6,367 129.2,367.5 129.9,368.3 130.9,369.8 131.3,370.8 
									131.3,371.6 127.4,371.6 126.9,371.4 124.5,370.3 125.8,372.9 125.8,374.9 125.2,376.6 121.9,374.9 120.2,372.2 
									120.4,376.6 119.3,378.7 118.7,378.5 117.7,377.7 115.2,373.5 115,373.3 								"/>
								<polyline class="st9" points="127.4,366.1 128.9,366.5 129.3,366.7 130.4,366.7 131.5,366.6 132.6,366.4 134.2,365.5 
									133.1,363.7 131.9,362.6 129.1,361.4 								"/>
								<polyline class="st9" points="129.2,361.3 130.8,361.3 132.1,360.8 133.1,360 133.9,359.3 134.7,358.5 135.1,358 133.6,357 
									132.4,356.5 131.6,356.3 129.1,356.4 128.6,356.4 								"/>
								<polyline class="st9" points="128.6,356.3 130.3,355.2 130.9,354.1 131.8,352.7 132.1,351.5 132.1,350.5 129,350.6 
									127.9,351.1 126.9,351.6 125.4,352.7 126.2,350.6 126.9,349.2 127.1,348.4 127.3,346.7 127.3,346.2 126.1,346.3 124,347 
									122.4,348 121,349.5 120.5,351 120.4,352.8 120.7,353.8 121.5,355 								"/>
								<path class="st9" d="M118.7,356.8c-1.4,0.1-2.6-1-2.7-2.4c0-0.1,0-0.2,0-0.4c0-1.4,0.3-2.9,1-4.1c1.7-2.8,3.9-5.2,6.6-7.1
									c3.1-2.1,6.6-3.6,10.3-4.4"/>
								<path class="st9" d="M124,346.9c0.1-0.2,0.2-0.3,0.3-0.5c0.4-0.5,0.8-0.8,1.3-1.2c1.1-0.8,2.3-1.5,3.6-2.1
									c1-0.4,2-0.7,3-0.9c1.5-0.4,2.7-0.7,3.5-0.9"/>
								<path class="st9" d="M127.1,348.8c1.6-0.6,3.1-1.3,4.6-2.1c0.1-0.1,0.5-0.3,1.1-0.6c1-0.5,1.6-0.8,2.2-1.1s1.5-0.8,2.6-1.4"
									/>
								<path class="st9" d="M131.4,350.5c2.1-0.7,4.1-1.8,5.9-3.2c0.5-0.4,0.9-0.7,1.4-1.1"/>
								<polyline class="st9" points="134.3,349.2 136.2,349.2 138.4,349.2 								"/>
								<path class="st9" d="M131.4,353.3c0.4-0.1,1.1-0.1,1.6-0.2c2.2-0.4,4.4-1,6.5-1.6"/>
								<path class="st9" d="M131.6,356.3c1-0.2,2.3-0.6,3.5-0.9c1.7-0.5,3.4-1.1,4.8-1.6"/>
								<path class="st9" d="M134.3,355.6c0.5,0.1,1.4,0.2,2,0.3c0.8,0.1,1.6,0.2,2.3,0.2"/>
								<line class="st9" x1="134" y1="359.2" x2="140.4" y2="358.8"/>
								<path class="st10" d="M132.2,362.7c0.8-0.1,1.7-0.2,2.6-0.4s1.8-0.4,2.6-0.6"/>
								<path class="st10" d="M133.7,362.5l3.3,1.7"/>
								<line class="st9" x1="132.4" y1="366.4" x2="139.7" y2="370"/>
								<path class="st10" d="M130.9,369.8c0.6,0.4,1.3,0.7,1.9,1c0.3,0.1,0.6,0.3,0.9,0.4c1.3,0.5,2.7,0.9,4.1,1.2"/>
								<line class="st9" x1="133.8" y1="371.2" x2="135.8" y2="374.2"/>
								<line class="st9" x1="129.1" y1="371.6" x2="137.4" y2="383.8"/>
								<path class="st9" d="M125.7,375.1c0.4,0.9,0.9,1.7,1.4,2.6c1.3,2.1,2.7,4.1,4.3,5.9"/>
								<path class="st9" d="M127.3,377.9c0.8,2.5,1.2,5.1,1.3,7.7"/>
								<line class="st9" x1="122.3" y1="375.1" x2="125.7" y2="391.4"/>
								<path class="st8" d="M94.8,369.7c-0.5,0-1.3,0-2.1-0.1c-1.5-0.1-3-0.3-4.5-0.6c-1.4-0.2-2.7-0.6-4-1.2
									c-1.6-0.8-2.8-2.2-3.4-3.8c-0.2-0.6-0.3-1.3-0.2-2l1.1-0.9l1,0.7c0,0.1,0,0.3,0,0.4c0.1,2.1,2.2,3.6,2.8,3.9
									c1.4,0.7,2.9,1.1,4.4,1.2l5,0.3L94.8,369.7z"/>
								<path class="st8" d="M81.7,361.1l-1.1,0.9h-0.4c-0.5,0-2.2-0.1-2.5-0.7s0.6-1.9,2.3-3.2c-0.1-0.4-0.1-0.8,0-1.2
									c0.1-0.1,0.1-0.2,0.2-0.2c1.4-1.6,1.5-1.7,1.6-1.7c0.8-0.1,1.7,2.1,1.7,2.4c0,0.3,0,0.7,0,1h0.2c1,0.1,1.5,1.5,1.5,1.8
									c0,0.6,0,1.2,0,1.9h-0.3l-2.3-0.1L81.7,361.1z"/>
								<polyline class="st9" points="96.8,373.3 95.7,373.8 94.2,373.8 92.8,372.6 91.5,373.4 90.2,373.5 89.1,373.1 88.1,372 
									87.4,372.3 86.6,372.4 85.3,372.4 84,371.3 84,370.6 82.9,370.6 81.7,370.6 80.8,370.4 80.1,369.5 80.1,368.2 80.1,367.4 
									79.3,367.4 78.8,367.1 78,366.3 77.8,365.4 77.8,364.1 78.2,363.4 76.9,362.9 76.2,361.9 76.2,360.6 76.3,359.6 76.9,359.1 
									77.3,358.7 76.7,357.9 76.8,356.3 77.2,355.6 78.5,355 79.7,355 79.7,353.9 80.3,353.1 81.1,352.9 82.3,352.9 83.3,353.4 
									83.7,354.3 83.7,355 83.7,355.2 85.3,355.2 86.3,356.1 86.6,356.6 86.6,358.2 86.2,358.5 85.8,359 86.2,359.7 86.6,360.2 
									87.1,360.7 87.2,361 								"/>
								<line class="st9" x1="87.9" y1="372.1" x2="86.7" y2="376.7"/>
								<line class="st9" x1="83.8" y1="370.6" x2="81.3" y2="374.5"/>
								<line class="st9" x1="80" y1="367.6" x2="76.2" y2="370"/>
								<line class="st9" x1="78.1" y1="363.5" x2="73.6" y2="364.7"/>
								<line class="st9" x1="77.3" y1="358.7" x2="73.2" y2="358.4"/>
								<line class="st9" x1="78.9" y1="355" x2="75.4" y2="352.6"/>
								<polyline class="st9" points="81.2,349.3 82.4,351.1 82.4,352.9 								"/>
								<polyline class="st9" points="87.7,385.4 87.6,383.4 87.8,378.1 86.7,379 85.4,385.2 85.2,385.9 								"/>
								<polyline class="st9" points="78,366.2 77.2,366.7 76.7,367.2 76,367.6 75.3,368.5 74.3,370 73.9,370.9 73.9,371.8 
									77.9,371.7 78.4,371.6 80.8,370.4 79.6,373 79.6,375.1 80.2,376.8 83.5,375.1 85.3,372.4 85.1,376.8 86.2,378.9 86.8,378.7 
									87.9,377.9 90.4,373.7 90.6,373.5 								"/>
								<polyline class="st9" points="77.9,366.2 76.3,366.7 76,366.8 74.8,366.8 73.8,366.8 72.6,366.5 70.9,365.6 72.1,363.8 
									73.3,362.7 76.1,361.5 								"/>
								<polyline class="st9" points="76.1,361.4 74.4,361.4 73.1,360.9 72.1,360.1 71.2,359.4 70.4,358.5 70.1,358.1 71.6,357.1 
									72.8,356.6 73.6,356.4 76.2,356.5 76.7,356.5 								"/>
								<polyline class="st9" points="76.7,356.4 75,355.2 74.3,354.2 73.5,352.8 73.1,351.5 73.1,350.5 76.3,350.6 77.4,351.2 
									78.5,351.7 80,352.7 79.1,350.7 78.4,349.3 78.3,348.5 78,346.8 78,346.2 79.3,346.3 81.4,347 83.1,348.1 84.4,349.6 
									85,351 85.1,352.9 84.8,353.8 84,355 								"/>
								<path class="st9" d="M86.8,356.8c1.4,0.1,2.6-0.9,2.8-2.3c0,0,0,0,0,0c0-0.1,0-0.2,0-0.4c0-1.4-0.3-2.9-1-4.1
									c-1.7-2.8-4-5.2-6.7-7.1c-3.2-2.1-6.8-3.7-10.5-4.4"/>
								<path class="st9" d="M81.4,346.9c-0.1-0.2-0.2-0.3-0.4-0.5c-0.4-0.5-0.8-0.8-1.3-1.2c-1.2-0.8-2.4-1.5-3.7-2.1
									c-1-0.4-2-0.7-3.1-0.9c-1.5-0.4-2.8-0.7-3.6-0.9"/>
								<path class="st9" d="M78.3,348.9c-1.6-0.6-3.2-1.3-4.7-2.1l-1.1-0.6c-1-0.5-1.6-0.8-2.2-1.1s-1.6-0.8-2.7-1.4"/>
								<path class="st9" d="M73.8,350.5c-2.2-0.8-4.2-1.9-6-3.3c-0.5-0.4-1-0.8-1.4-1.2"/>
								<polyline class="st9" points="71,349.3 68.9,349.2 66.7,349.2 								"/>
								<path class="st9" d="M73.8,353.4c-0.5-0.1-1.1-0.1-1.6-0.2c-2.3-0.4-4.5-1-6.7-1.7"/>
								<path class="st9" d="M73.6,356.4c-1.1-0.2-2.4-0.6-3.6-0.9c-1.8-0.5-3.4-1-5-1.6"/>
								<path class="st9" d="M70.8,355.7c-0.6,0.1-1.5,0.2-2.1,0.3c-0.8,0.1-1.6,0.2-2.4,0.2"/>
								<line class="st9" x1="71.1" y1="359.3" x2="64.6" y2="358.9"/>
								<path class="st10" d="M73.1,362.9c-1-0.1-2-0.3-3-0.5s-2.1-0.5-3-0.8"/>
								<path class="st10" d="M71.4,362.6l-3.3,1.7"/>
								<line class="st9" x1="72.8" y1="366.5" x2="65.3" y2="370.1"/>
								<path class="st10" d="M74.3,370c-0.6,0.3-1.3,0.7-2,1l-1,0.4c-1.3,0.5-2.7,0.9-4.2,1.1"/>
								<line class="st9" x1="71.4" y1="371.3" x2="69.5" y2="374.2"/>
								<line class="st9" x1="76.2" y1="371.8" x2="67.7" y2="384"/>
								<path class="st9" d="M79.7,375.1c-0.5,0.9-1,1.8-1.6,2.7c-1.4,2.2-3,4.2-4.8,6.1"/>
								<path class="st9" d="M78,378.1c-0.7,2.4-1.1,4.9-1.1,7.4"/>
								<line class="st9" x1="83.2" y1="375.3" x2="79.7" y2="391.6"/>
								<line class="st9" x1="94.3" y1="373.9" x2="93.4" y2="376.6"/>
								<line class="st9" x1="91.6" y1="373.5" x2="89.4" y2="382"/>
							</g>
						</g>
						<g id="Dziób_Beak_">
							<path class="st14" d="M102.9,346c0,0-1.6-0.9-1.7-0.9s-0.5-0.1-0.7-0.1c-0.3,0-0.5,0-0.8,0c-0.3,0-0.6,0.1-0.8,0.2
								c-0.2,0.1-0.3,0.2-0.5,0.4c-0.3,0.1-0.7,0.3-1,0.4c-0.3,0.1-0.6,0.3-0.8,0.4c-0.2,0-0.8,0.1-0.8,0.1c-0.3,0-0.6,0.1-0.9,0.1
								c-0.2-0.1-0.4-0.1-0.6-0.2c-0.2-0.1-0.5-0.2-0.7-0.3c-0.1-0.1-0.2-0.4-0.4-0.4c-0.2,0-0.3,0.2-0.4,0.4c0,0.2,0.1,0.3,0.2,0.4
								c0.2,0.3,0.4,0.6,0.7,0.8c0.2,0.1,0.4,0.2,0.6,0.3l0.7,0.1c0.4,0,1.2,0,1.6-0.1c0.5-0.1,0.9-0.1,1.4-0.3
								c0.4-0.1,1-0.6,1.3-0.8c0.2-0.1,0.4-0.2,0.7-0.2c0.2,0,0.6-0.1,0.9-0.1c0.2,0,0.5,0,0.7,0c0.2,0,0.4,0.1,0.6,0.1
								c0.2,0.1,0.3,0.2,0.5,0.3c0,0,0.3,0.2,0.4,0.1c0.1,0,0.1-0.1,0.1-0.2L102.9,346z"/>
							<path class="st15" d="M97.1,341.5h-1.6l-0.8,0.4l-0.6,0.3l-0.6,0.6v0.6c0,0,0,0.6,0,0.6c0,0.2,0.1,0.5,0.2,0.7l0.2,0.6
								l0.4-0.1l0.6-0.4l0.6-0.2h0.7l0.8,0.1l0.4,0.2l0.4,0l0.5-0.1h0.5h0.5c0.2,0,0.3,0.1,0.5,0.1l1.1,0.1l0.6,0.2
								c0,0,0.5,0.2,0.5,0.2l0.5,0.2l0.2,0.2l0.1,0.2l-0.1,0.3h-0.5l-0.4-0.2c0,0-0.3-0.1-0.3-0.1l-0.4-0.1c-0.2,0-0.3,0-0.5,0
								c-0.2,0-0.3,0-0.5,0l-0.5,0.1l-0.4,0.1l-0.2,0.2l-0.2,0.2l-0.1,0.3v0.4l-0.1,1l0.1,0.1l0.1,0.1l0.6-0.5l0.4-0.3l0.5-0.1
								l0.5-0.1l0.4-0.1h1.1l0.2,0.2l0.6,0.2l0.4,0.2l0.3,0.1h0.7l0.2-0.4l-0.1-0.6l-0.2-0.8l-0.6-0.7l-0.9-0.8c0,0-1.2-0.6-1.2-0.7
								s-0.8-0.3-0.9-0.3l-0.7-0.3l-0.4-0.5l-0.6-0.5l-1-0.5l-0.6-0.2L97.1,341.5z"/>
						</g>
						<g id="Korona_Crown_">
							<path class="st8" d="M98.5,339c-0.9-1.9-1.8-3.8-2.5-5.8c-0.1-0.3-0.2-0.7-0.3-1c0.5-0.5,0.9,0.3,1.2,0.3
								c0.3-0.1,0.5-0.2,0.7-0.4c0.2-0.2,0.5-0.3,0.7-0.5c0.3-0.1,0.6-0.2,0.9-0.2c0.2,0,0.6-0.1,0.8-0.1s1.2-0.1,1.3-0.1h0.2
								c0-0.2,0-0.5,0-0.7c0.1-0.2,0.2-0.4,0.4-0.6l0.3-0.4V329v-0.2h-0.8v-0.9h0.8v-1h1v1h0.8v0.9h-0.9l0.1,0.7
								c0,0,0.3,0.3,0.4,0.4c0.1,0.1,0.1,0.2,0.2,0.3c0.1,0.1,0.1,0.3,0.2,0.5c0,0.1,0,0.3,0,0.5c0,0,0.6,0,0.8,0c0.3,0,0.7,0,1,0.1
								c0.2,0.1,0.7,0.3,0.9,0.4s0.6,0.2,0.8,0.3c0.3,0.1,0.6,0.3,0.8,0.5c0,0,0.1,0.2,0.2,0.2c0.2-0.1,0.3-0.1,0.5-0.2
								c0.2-0.1,0.4-0.1,0.7-0.1c0.1,0,0.1,0.1,0.2,0.2c0,0.1-0.1,0.3-0.2,0.4l-0.5,1.5l-0.9,2.2l-0.4,1l-0.4,1c0,0-0.2,0.5-0.4,0.7
								c-0.1,0.1-0.1,0.3-0.1,0.5v0.2h-0.5l-0.9-0.1l-2-0.3l-1.2-0.2l-1.8-0.2L98.5,339z"/>
							<g id="Warstwa">
								<path class="st16" d="M97.5,333c-0.2,0.3,0.2,1,0.5,1s0.2-0.2,0.5-0.4c0.4-0.2,0.9-0.1,1.1,0.3c0,0,0,0.1,0,0.1
									c0.1,0.2,0.1,0.4-0.1,1.3s-0.2,1-0.3,1s-0.3-0.9-0.7-1c-0.2,0-0.4,0.2-0.4,0.5c0,0.3,0.1,0.6,0.3,0.8
									c0.2,0.2,0.4,0.4,0.7,0.5c0.2,0.1,0.3,0,1.2,0c0.4,0,0.8,0,1.2-0.1c0.5-0.1,0.9-0.5,0.9-1c0-0.3,0-0.6,0-0.9
									c0-0.4-0.1-0.5-0.1-0.5c-0.1-0.1-0.2-0.1-0.4-0.1c-0.1,0-0.2,0.2-0.2,0.3c-0.1,0.2-0.1,0.5,0,0.7c0.1,0.1,0.2,0.2,0.1,0.4
									c0,0.1,0,0.1-0.1,0.1c0,0-0.1,0-0.5-0.2c-0.2-0.1-0.3-0.3-0.4-0.4c-0.2-0.2-0.4-0.4-0.5-0.6c0-0.2-0.1-0.3-0.2-0.5
									c-0.1-0.1-0.1-0.3-0.2-0.4c-0.1-0.2-0.1-0.5,0-0.8c0.1-0.2,0.2-0.3,0.4-0.4c0.2-0.1,0.5-0.1,0.7,0c0.6,0.2,0.7,0.9,0.8,0.8
									s0.1-0.4,0-0.6s-0.2-0.2-0.2-0.4c0-0.1,0-0.3,0-0.4c0-0.1,0-0.2,0-0.2s-0.2,0-0.5,0s-0.3,0-0.8,0c-0.2,0-0.3,0-0.4,0.1
									l-0.5,0.1c-0.2,0.1-0.4,0.1-0.5,0.2l-0.4,0.2l-0.5,0.3C97.6,332.9,97.6,332.9,97.5,333z"/>
								<path class="st16" d="M107.8,333c0.2,0.3-0.2,1-0.5,1s-0.2-0.2-0.5-0.4c-0.2-0.1-0.5-0.1-0.7,0c-0.2,0.1-0.4,0.3-0.4,0.5
									c-0.1,0.2-0.1,0.4,0.1,1.3s0.2,1,0.3,1s0.3-0.9,0.6-1c0.2,0,0.4,0.2,0.4,0.5c0,0.3-0.1,0.6-0.3,0.8
									c-0.2,0.2-0.4,0.4-0.7,0.5c-0.2,0.1-0.2,0-1.1,0c-0.4,0-0.8,0-1.1-0.1c-0.2-0.1-0.4-0.1-0.5-0.3c-0.2-0.2-0.3-0.4-0.3-0.7
									c-0.1-0.3-0.1-0.6,0-0.9c0-0.4,0.1-0.5,0.1-0.5c0.1-0.1,0.2-0.1,0.3-0.1c0.1,0,0.2,0.2,0.2,0.3c0.1,0.2,0.1,0.5,0,0.7
									c-0.1,0.1-0.2,0.2-0.1,0.4c0,0.1,0,0.1,0.1,0.1c0.1,0,0.1,0,0.5-0.2c0.2-0.1,0.3-0.3,0.4-0.4c0.2-0.2,0.3-0.4,0.5-0.6
									c0.1-0.1,0.1-0.3,0.1-0.5c0.1-0.4,0.1-0.3,0.1-0.4c0.1-0.2,0.1-0.5,0-0.8c-0.2-0.4-0.6-0.5-1-0.4c-0.5,0.2-0.7,0.9-0.8,0.8
									s-0.1-0.4,0-0.6s0.2-0.2,0.2-0.4c0-0.1,0-0.3,0-0.4c0-0.1,0-0.2,0-0.2s0.2,0,0.5,0s0.3,0,0.8,0c0.1,0,0.3,0,0.4,0.1
									c0.1,0,0.3,0.1,0.4,0.1c0.2,0.1,0.3,0.1,0.5,0.2l0.4,0.2l0.4,0.3C107.7,332.9,107.8,332.9,107.8,333z"/>
							</g>
							<path class="st8" d="M99.1,338.3c-0.1-0.1-0.2-0.3-0.1-0.4c0.5-0.5,1.3-0.5,1.9,0c0,0.1,0,0.2,0,0.3c-0.1,0.4-1,0.3-1.1,0.3
								C99.5,338.5,99.3,338.5,99.1,338.3z"/>
							<path class="st8" d="M101.9,338.3c-0.1-0.1-0.2-0.3-0.1-0.4c0.2-0.4,1.6-0.6,1.9,0c0.1,0.1,0.1,0.2,0.1,0.3
								c-0.1,0.4-1,0.3-1.1,0.3C102.3,338.5,102.1,338.5,101.9,338.3z"/>
							<path class="st8" d="M104.6,338.4c-0.1-0.1-0.2-0.3-0.1-0.4c0.2-0.4,1.6-0.6,1.9,0c0.1,0.1,0.1,0.2,0.1,0.3
								c-0.1,0.4-1,0.3-1.1,0.3C105.1,338.6,104.8,338.5,104.6,338.4z"/>
						</g>
					</g>
					<g id="Godło_Polski_Polish_coat_of_arms_PG">
						<g id="Nogi_Legs_2">
							<g id="Noga_Leg_L-2">
								<path class="st8" d="M187.7,284.5l-0.5,0.9l0.5,0.2l-1.9,2.4l0.6,0.1l-2.3,2.5h0.9l-1.9,2.1l0.4,0.3l-2,1.9
									c0.4-0.1,0.5,0,0.6,0c0.2,0.3-0.7,1.4-1.8,1.9c-0.5,0.2-1,0.3-1.5,0.3c-0.5,0.5-1.2,0.9-1.9,1.1c-0.6,0.2-1.2,0.2-1.7-0.1
									c-0.5-0.4-0.3-1-0.8-1.2c-0.2-0.1-0.2,0-0.9,0.1c-0.5,0.1-0.9,0-1.4,0c-0.4-0.1-0.5-0.2-0.7-0.1s-0.2,0.4-0.6,0.9
									s-0.4,0.3-0.6,0.7c-0.2,0.3-0.3,0.6-0.3,0.9c0,0.2-0.1,1,0.1,1.1s0.7-0.3,0.9-0.5s0.4-0.6,0.5-0.6s0.1,0.1,0.3,0.3
									c0.1,0.1,0.3,0.1,0.5,0.1c0.3,0,0.6,0,0.9-0.1c0.4-0.1,0.5-0.2,0.6-0.2s0.1,0.1,0.3,0.3s0.2,0.3,0.3,0.4s0.3,0,0.4,0.1
									c0.1,0.2,0,0.4-0.2,0.5c-0.2,0.1-0.5,0.2-0.8,0.1c-0.3,0-0.5-0.1-0.8-0.2c-0.1,0-0.2-0.1-0.4-0.2c-0.1-0.1-0.3-0.1-0.4-0.1
									c-0.2,0-0.4,0-0.6,0c-0.1,0-0.3,0.1-0.4,0.1c-0.2,0.1-0.4,0.2-0.6,0.3c-0.3,0.2-0.5,0.5-0.6,0.8c-0.1,0.3-0.1,0.3-0.2,0.5
									s-0.4,0.3-0.5,0.5s0,0.6,0.1,1c0.2,0.4,0.4,0.8,0.7,1.1c0.3,0.4,0.7,0.7,1.1,0.9c0.3,0.2,0.5,0.3,0.5,0.2
									c-0.1-0.3-0.3-0.6-0.4-0.9c0-0.2,0-0.4,0-0.5c0-0.2,0.1-0.3,0.2-0.4c0.1-0.1,0.3-0.3,0.5-0.3c0.5-0.2,0.5-0.1,0.7-0.2
									c0.1-0.1,0.3-0.3,0.4-0.5c0.1-0.1,0.1-0.2,0.2-0.2c0.2-0.1,0.4-0.1,0.5-0.1c0.4,0,0.7,0,1.1-0.2c0.3-0.1,0.6-0.3,0.8-0.6
									c0.1-0.2,0.2-0.4,0.4-0.5c0.1-0.1,0.2-0.1,0.3,0c0.1,0.1,0.1,0.5,0,0.5s-0.1,0.3-0.6,0.7c-0.3,0.3-0.6,0.5-0.9,0.6l-0.7,0.3
									c-0.2,0.1-0.4,0.2-0.6,0.3c-0.2,0.1-0.3,0.2-0.4,0.4c-0.3,0.5-0.5,1-0.5,1.6c-0.1,0.2-0.1,0.5,0,0.7
									c0.1,0.2,0.2,0.4,0.4,0.5c0.7,0.5,1.4,0.9,2.2,1.1c0.4,0.1,0.8,0.2,1.2,0.1c0.2,0,0.6-0.2,0.6-0.3s-0.4-0.1-0.9-0.4
									c-0.1-0.1-0.8-0.5-0.7-0.9c0-0.1,0.3-0.4,0.4-0.5c0.2-0.2,0.4-0.3,0.6-0.5c0.1-0.2,0.2-0.4,0.2-0.6c0-0.2,0-0.5,0-0.7
									c-0.1-0.6,0.2-1.2,0.8-1.4c0.7-0.4,0.8-0.4,1-0.6c0.1-0.1,0,0,0.5-0.6c0.2-0.2,0.3-0.4,0.5-0.6c0.2-0.2,0.4-0.4,0.7-0.5
									c0.2-0.1,0.4-0.2,0.6-0.3c0.3-0.1,0.6-0.1,0.9-0.1c0.2,0,0.5,0.1,0.7,0.2c0.2,0.2,0.5,0.4,0.7,0.6c0.2,0.1,0.2,0.2,0.2,0.3
									c0.1,0.2,0,0.5-0.2,0.7c-0.3,0.1-0.6,0.2-0.8,0.1c-0.2-0.1-0.3-0.1-0.5-0.1c-0.1,0-0.3,0-0.4,0.1c-0.1,0.1,0.1,0.5,0.3,0.7
									c0.1,0.1,0.3,0.2,1.1,0.3c0.5,0.1,1,0.1,1.4,0.1c0.3,0,0.7-0.1,1-0.2c0.2-0.1,0.4-0.3,0.6-0.5c0.5-0.3,0.6-0.3,0.8-0.5
									c0.1-0.2,0.2-0.5,0.1-0.7c0-0.3,0-0.5,0-0.8c0-0.2-0.1-0.5-0.1-0.7c-0.1-0.2-0.2-0.4-0.4-0.6c-0.2-0.1-0.4-0.1-0.7-0.1
									c-0.4,0-0.4,0.2-0.8,0.3c-0.2,0.1-0.5,0-0.7,0c-0.2-0.1-0.4-0.3-0.5-0.5c-0.1-0.2-0.2-0.4-0.2-0.6c0-0.4,0.1-0.7,0.3-1
									c0.1-0.2,0.3-0.5,0.5-0.6l8.4-10.1l-0.5-0.8l-2.8,1.1v-2.4L187.7,284.5z"/>
								<path class="st9" d="M175.7,306.5h-1.2c0,0.1-0.1,0.1-0.2,0.2c-0.2,0.1-0.7,0-1,0l-0.4,0.2h-0.2"/>
								<path class="st8" d="M171.7,303.9l-0.4-0.5c-0.2-0.1-0.3-0.3-0.5-0.4c-0.2,0-0.3-0.1-0.5-0.2c-0.1-0.1-0.2-0.2-0.2-0.4
									c-0.1-0.1-0.3-0.4-0.3-0.4"/>
								<path class="st8" d="M171.4,299.3c0-0.1,0-0.2,0-0.3c0-0.1-0.1-0.3-0.2-0.4c-0.1-0.2-0.1-0.2-0.2-0.4c0-0.1-0.1-0.2-0.2-0.3
									l-0.1,0"/>
								<path class="st8" d="M183.3,301.4c0.2,0,0.4,0,0.5,0c0.2,0.1,0.3,0.6,0.5,0.7c0.1,0.1,0.2,0.1,0.4,0.1l1,0.1l0.3,0.2"/>
							</g>
							<g id="Noga_Leg_P-2">
								<path class="st8" d="M215.9,284.5l0.5,0.9l-0.5,0.2l1.9,2.4l-0.6,0.1l2.3,2.5h-0.8l1.9,2.1l-0.4,0.3l2,1.9
									c-0.4-0.1-0.5,0-0.6,0c-0.2,0.3,0.7,1.4,1.8,1.9c0.5,0.2,1,0.3,1.5,0.3c0.5,0.5,1.2,0.9,1.9,1.1c0.5,0.2,1.2,0.2,1.7-0.1
									c0.5-0.4,0.3-1,0.8-1.2c0.2-0.1,0.2,0,0.9,0.1c0.5,0.1,0.9,0,1.4,0c0.4-0.1,0.5-0.2,0.7-0.1s0.2,0.4,0.6,0.9
									s0.4,0.3,0.6,0.7c0.2,0.3,0.3,0.6,0.3,0.9c0,0.2,0.1,1-0.1,1.1s-0.7-0.3-0.9-0.5s-0.4-0.6-0.5-0.6s-0.1,0.1-0.3,0.3
									c-0.1,0.1-0.3,0.1-0.5,0.1c-0.3,0-0.6,0-0.9-0.1c-0.4-0.1-0.5-0.2-0.6-0.2c-0.1,0.1-0.2,0.2-0.3,0.3
									c-0.2,0.2-0.2,0.3-0.3,0.4s-0.3,0-0.4,0.1c-0.1,0.2,0,0.4,0.2,0.5c0.2,0.1,0.5,0.2,0.7,0.1c0.3,0,0.5-0.1,0.8-0.2l0.4-0.2
									c0.1-0.1,0.3-0.1,0.4-0.1c0.2,0,0.4,0,0.6,0c0.1,0,0.3,0.1,0.4,0.1c0.2,0.1,0.4,0.2,0.6,0.3c0.3,0.2,0.5,0.5,0.6,0.8
									c0.1,0.3,0,0.3,0.2,0.5s0.4,0.3,0.5,0.5s0,0.6-0.1,1c-0.2,0.4-0.4,0.8-0.7,1.1c-0.3,0.4-0.7,0.7-1.1,0.9
									c-0.3,0.2-0.5,0.3-0.5,0.2c0.1-0.3,0.2-0.6,0.3-0.9c0-0.2,0-0.4,0-0.5c0-0.2-0.1-0.3-0.2-0.4c-0.1-0.1-0.3-0.3-0.5-0.3
									c-0.5-0.2-0.5-0.1-0.7-0.2c-0.1-0.1-0.3-0.3-0.4-0.5c-0.1-0.1-0.1-0.2-0.2-0.2c-0.2-0.1-0.4-0.1-0.5-0.1
									c-0.4,0-0.7,0-1.1-0.2c-0.3-0.1-0.6-0.3-0.8-0.6c-0.1-0.2-0.2-0.4-0.4-0.5c-0.1-0.1-0.2-0.1-0.3,0c-0.2,0.1-0.1,0.5,0,0.5
									c0.1,0.3,0.3,0.5,0.6,0.7c0.3,0.3,0.6,0.5,0.9,0.6l0.7,0.3c0.2,0.1,0.4,0.2,0.6,0.3c0.2,0.1,0.3,0.2,0.4,0.4
									c0.3,0.5,0.4,1,0.5,1.6c0.1,0.2,0.1,0.5,0,0.7c-0.1,0.2-0.2,0.4-0.4,0.5c-0.7,0.5-1.4,0.9-2.2,1.1c-0.4,0.1-0.8,0.2-1.1,0.1
									c-0.2,0-0.6-0.2-0.6-0.3s0.4-0.1,0.9-0.4c0.1-0.1,0.8-0.5,0.7-0.9c-0.1-0.2-0.2-0.3-0.4-0.5c-0.3-0.3-0.5-0.3-0.6-0.5
									c-0.1-0.2-0.2-0.4-0.2-0.6c0-0.2,0-0.5,0-0.7c0.1-0.6-0.2-1.2-0.8-1.4c-0.7-0.4-0.8-0.4-1-0.6c-0.1-0.1,0,0-0.5-0.6
									c-0.2-0.2-0.3-0.4-0.5-0.6c-0.2-0.2-0.4-0.4-0.7-0.5c-0.2-0.1-0.4-0.2-0.6-0.3c-0.3-0.1-0.6-0.1-0.9-0.1
									c-0.2,0-0.4,0.1-0.6,0.2c-0.2,0.2-0.5,0.4-0.7,0.6c-0.2,0.1-0.2,0.2-0.2,0.3c-0.1,0.2,0,0.5,0.2,0.7
									c0.3,0.1,0.6,0.2,0.8,0.1c0.2-0.1,0.3-0.1,0.5-0.1c0.1,0,0.3,0,0.4,0.1c0.1,0.1-0.1,0.5-0.3,0.7c-0.1,0.1-0.3,0.2-1,0.3
									c-0.5,0.1-1,0.1-1.4,0.1c-0.4,0-0.7-0.1-1.1-0.2c-0.2-0.1-0.2-0.2-0.6-0.5s-0.6-0.3-0.8-0.5c-0.1-0.2-0.1-0.5-0.1-0.7
									c0-0.3,0-0.5,0-0.8c0-0.2,0.1-0.5,0.1-0.7c0.1-0.2,0.2-0.4,0.4-0.6c0.2-0.1,0.4-0.1,0.7-0.1c0.4,0,0.4,0.2,0.8,0.3
									c0.5,0.1,1.1-0.1,1.3-0.6c0.1-0.2,0.2-0.4,0.2-0.6c0-0.4-0.1-0.7-0.3-1c-0.1-0.2-0.3-0.5-0.5-0.6l-8.5-10l0.5-0.8l2.8,1.1
									v-2.4L215.9,284.5z"/>
								<path class="st9" d="M227.8,306.5h1.2c0,0.1,0.1,0.1,0.2,0.2c0.2,0.1,0.7,0,0.9,0l0.4,0.2h0.2"/>
								<path class="st8" d="M231.8,303.9l0.4-0.5c0.2-0.1,0.3-0.3,0.5-0.4c0.2-0.1,0.3-0.1,0.5-0.2c0.1-0.1,0.2-0.2,0.2-0.4
									c0.1-0.1,0.3-0.4,0.3-0.4"/>
								<path class="st8" d="M232.1,299.3c0-0.1,0-0.2,0-0.3c0-0.1,0.1-0.3,0.2-0.4c0.1-0.2,0.1-0.2,0.2-0.4c0-0.1,0.1-0.2,0.2-0.3
									l0.1,0"/>
								<path class="st8" d="M220.2,301.4c-0.2,0-0.4,0-0.5,0c-0.2,0.1-0.3,0.6-0.5,0.7c-0.1,0.1-0.2,0.1-0.4,0.1l-1,0.1l-0.3,0.2"
									/>
							</g>
						</g>
						<g id="Orzeł_Eagle_2">
							<path id="Skrzydła_Wings_2" class="st10" d="M192.8,255.1c-1.1,0-2.3-0.1-3.4-0.3c-0.5-0.1-1-0.3-1.5-0.4
								c-0.4-0.1-0.7-0.2-1-0.4c-0.4-0.3-0.8-0.7-1-1.2c-0.1-0.2-0.3-0.9,0-1.1s0.4,0,0.7,0c0.6,0.2,1.3,0.2,1.9,0.2
								c0.6-0.1,1.1-0.3,1.5-0.6c0.5-0.4,0.9-0.9,1.2-1.4c0.6-1,0.9-2.1,1-3.2c0.2-2.1-0.1-4.3-1-6.3c-0.3-0.6-0.5-1.2-0.9-1.8
								c-1.8-2.9-4.2-5.3-7.1-7.1c-2.8-1.7-5.9-3-9.1-3.7c-3.5-0.9-7-1.5-10.6-1.6l0.2,0.4c1,2.2,2.7,4.1,4.7,5.5h-0.3
								c-1.6-0.1-3.1-0.3-4.6-0.6c-0.8,0-1.7,0-2.5,0c0,0.1,0.1,0.3,0.2,0.4c0.5,1.1,1.2,2,2.1,2.8c0.9,0.9,1.6,1.6,2.1,2.1h-0.3
								c-0.8-0.1-1.5-0.4-2-1c-0.5-0.4-1.2-1-2.2-1.7c-0.1,0.3-0.1,0.6,0,0.9c0.2,0.7,0.7,1.4,1.4,1.8c1.2,0.9,2.4,1.9,3.5,3h-0.3
								c-1.6,0.1-3.1,0.4-4.5,1.1c0,0.1,0,0.2,0,0.3c0.3,2.1,3.1,3.3,4.1,3.7h-0.5c-1.3,0-2.6-0.4-3.7-1c0,0.2,0,0.4,0.1,0.5
								c0.6,2.1,5,2.3,5.4,2.4c-0.2,0-0.5,0.1-0.9,0.2c-0.8,0.2-4.3,1.1-4.4,2.2c-0.2,1.4,5.4,3.1,5.8,3.3c-0.1,0.1-0.1,0.2-0.2,0.2
								c-0.4,0.4-1,0.5-1.5,0.5l-1.5,0.2c-0.5,0.1-1.1,0.1-1.7,0c-0.5-0.1-0.8-0.3-0.9-0.2s0.2,0.6,0.4,0.8c0.7,0.6,1.6,1,2.5,0.9
								h3.5l-0.3,0.2c-2.4,2-4.5,4.4-6,7.2l0.2,0.2c0.8,0.6,1.8,0.8,2.7,0.6l2.5-0.1l-0.1,0.1c-1,1.4-2.4,2.5-4.1,3.1
								c-0.4,0.1-0.8,0.3-1.2,0.4c-0.1,0.1-0.1,0.2-0.1,0.3c0,0.3,0.4,0.4,0.6,0.5c0.9,0.2,1.8,0,2.6-0.4c0.9-0.3,1.7-0.6,2.5-1.1
								c0.9-0.5,1.8-1.1,1.8-1c0,0.1-0.1,0.2-0.1,0.3c-0.1,0.2-0.2,0.3-0.3,0.6l-0.2,0.3l-0.2,0.4c-0.3,0.5-0.4,0.6-0.7,1l-0.4,0.8
								c-0.1,0.2-0.4,0.7-0.6,1.2c-0.4,0.8-0.4,0.7-0.5,1c-0.2,0.4-0.4,0.9-0.6,1.3c-0.2,0.5-0.1,0.6-0.3,1.1
								c-0.1,0.3-0.3,0.6-0.4,0.9s-0.1,0.4-0.2,1c-0.1,0.2-0.1,0.2-0.2,0.6s-0.1,0.6-0.2,0.9c-0.2,0.7-0.2,1-0.3,1.2
								c0,0.3,0,0.7,0,1c0,0.9-0.3,1.3,0,1.5c0.1,0,0.1,0.1,0.2,0c1-0.1,2-0.4,2.8-0.9c1.2-0.6,2.3-1.3,3.3-2.1l1-0.9
								c1.2-1.1,0.9-0.8,1.4-1.2s0.8-0.8,0.9-0.7s-0.1,1-0.1,1.3c-0.1,0.4-0.2,0.7-0.4,1c-0.2,0.5-0.3,0.6-0.5,1s-0.2,0.5-0.4,1
								c-0.2,0.5-0.4,0.9-0.6,1.4c-0.3,0.4-0.5,0.8-0.8,1.2c-0.2,0.3-0.4,0.6-0.7,0.9c-0.4,0.4-0.6,0.5-0.6,0.6s0.9,0.4,1.6,0.1
								c0.4-0.1,0.7-0.4,1.5-1.3c0.6-0.7,1-1.2,1.4-1.6c0.3-0.3,0.5-0.6,0.8-0.8c0.2-0.4,0.5-0.8,0.7-1.3c0.3-0.5,0.9-1.5,1.1-1.5
								s0,0.2,0,0.9s0,0.9,0,1.7c0,0.1,0,0.5,0.1,1.3s0,1.1,0.1,1.4c0,0.4,0.1,0.8,0.1,1.1c0.1,0.4,0.2,0.8,0.3,1.1
								c0.6,2,0.5,3.9,1.2,4.2c0.9,0.3,2.6-2.3,3.3-3.4c0.8-1.2,1.4-2.5,1.9-3.8c1.1-2.6,1.4-4.9,1.6-4.9s0.1,0.2,0.1,0.7
								s0,0.9-0.1,1.3c-0.2,1.9-0.1,1.8-0.3,3.1c-0.1,0.8-0.2,1.7-0.4,2.5c0,0.1-0.1,0.4,0,0.4s0.3-0.1,0.5-0.3c0.5-0.5,1-1,1.3-1.6
								c0.8-2.1,1.2-4.3,1.2-6.5l0.8,1.7l0.5-0.4c0.6-0.5,1.1-1.1,1.5-1.8c0.5-0.8,0.9-1.6,1.2-2.5c0.3-0.8,0.6-1.6,0.9-2.4
								s0.6-1.9,0.8-2.8h0.5c0.8,0.1,1.6,0,2.4-0.1c0.6-0.1,1.1-0.3,1.6-0.6c0.1,0,0.2,0,0.3,0.1c0.1,0,1,0.3,1,0.9
								c0,0.2-0.1,0.6-0.3,0.6c-0.2,0-0.4,0-0.6-0.2l-1-0.4h-0.9l-0.9,0.3c-1.1,0.4-2,1.4-2.4,2.6c-0.1,0.4-0.2,0.7-0.2,1.1
								c0,0.6,0,1.2-0.2,1.8c-0.2,0.6-0.5,1.1-0.9,1.6c-0.6,0.8-1.4,1.6-2.2,2.3c0,0.1,0.1,0.3,0.1,0.3c0.2,0.1,0.4,0.2,0.6,0.1
								c0,0.1-0.1,0.3-0.2,0.4c-0.5,0.8-1.3,1-1.2,1.2s0.4,0.2,0.5,0.4s-0.1,0.4-0.7,0.9c-0.3,0.2-0.7,0.5-1.2,0.9
								c0,0.1,0.1,0.2,0.2,0.2c0.3,0.3,0.5,0.3,0.6,0.4c0.1,0.4-2.1,1-2.1,1.6c0,0.3,0.8,0.6,1.3,0.7h2.4c0.2,0,0.3,0,0.4,0
								s0.1,0.2,0,0.7c0,0.2,0,0.4,0,0.6c0,0.2,0,0.4,0,0.5c0,0.1,0,0.3,0.1,0.4v0.2c0,0,0.1,0,0.5-0.1l0.5-0.2
								c0.2-0.1,0.3-0.1,0.5-0.2c0.2-0.1,0.5-0.2,0.7-0.4c0.3-0.2,0.5-0.3,0.6-0.3c0.1,0,0.2,0.1,0.3,0.2c0.1,0.1,0.1,0.1,0.3,0.4
								c0.1,0.1,0.2,0.3,0.3,0.4l0.3,0.2c0.2,0.2,0.4,0.4,0.6,0.7c0.2,0.1,0.4,0.2,0.6,0.3c0.3,0.1,0.5,0.2,0.8,0.3
								c0.4,0.1,0.5,0.2,0.5,0.1c-0.2-0.3-0.3-0.5-0.4-0.8c-0.1-0.2-0.1-0.5,0-0.7l0.1-0.8l0.5,0.2h0.5l-0.2-1.4
								c-0.1-0.6-0.1-1.2,0-1.8c0.3-2.1,1.4-4,3-5.4v0.6c-0.1,3.2-1,6.4-2.6,9.2c0.1,0,0.2,0.1,0.4,0.1c0.8,0,1.6-0.4,2.1-1.1
								c0,0.1,0,0.2,0.1,0.2c0.4,1.7-0.8,3.5-1.9,4.5c-0.4,0.4-0.9,0.6-1.4,0.7c-0.6,0.1-1.2-0.1-1.7-0.4l-0.2,0.2
								c-0.1,0.4-0.1,0.9-0.1,1.3c0,0.6,0.4,1.2,0.9,1.5c0.7,0.4,1.5,0.5,2.3,0.2c0.6-0.1,1.1-0.4,1.5-0.8c0,0.2-0.1,0.5-0.2,0.7
								c-0.5,1.2-1.4,2.2-2.6,2.7c-0.4,0.2-1.9,0.8-2.8,0.2c-0.3-0.2-0.5-0.4-0.7-0.7c-0.4-0.7-0.3-1.6,0.4-2.1
								c-0.4-0.1-0.8-0.1-1.2,0c-1.1,0.3-2,1.2-2.3,2.3c-0.2,0.6-0.2,1.2,0,1.8c0.5,1.6,2.8,2,3.4,2.1c1.1,0.1,2.1,0.1,3.1-0.3
								c1.1-0.3,2.1-0.8,2.9-1.4c0,0.2-0.1,0.3-0.1,0.5c-0.2,0.7-0.6,1.2-1.9,2.3c-0.7,0.7-1.5,1.2-2.4,1.6c-0.6,0.2-1.2,0.2-1.8,0
								c-0.3-0.2-0.6-0.4-0.9-0.7c-0.1-0.1-0.1-0.2-0.2-0.4c-0.2-0.4-0.2-0.9,0-1.3c-0.2,0-0.4,0-0.6,0c-0.9,0.2-1.7,1-1.9,1.9
								c-0.1,0.6-0.1,1.2,0.2,1.8c0.8,1.7,3.1,2.1,3.6,2.2c1.2,0.2,2.4,0,3.5-0.5c1.2-0.6,2.3-1.5,3.1-2.6c0.3-0.4,0.6-0.8,0.9-1.2
								c0,0.1,0,0.2,0,0.4c-0.1,0.5-0.1,1-0.2,1.5c-0.1,1.4,0.1,2.7,0.5,4c0.1,0.6,0.3,1.2,0.6,1.7c0.7,1.3,1,1.9,1,1.9
								s0,0.1,0.1,0.1c0.2,0.1,1.1-1.9,1.6-3.6c0.4-1.3,0.6-2.6,0.5-4c-0.1-0.5-0.1-1-0.2-1.5c0-0.2-0.1-0.3,0-0.4
								c0.3,0.4,0.6,0.8,0.9,1.2c0.8,1.1,1.9,2,3.1,2.6c1.1,0.5,2.3,0.6,3.4,0.5c0.5-0.1,2.8-0.4,3.6-2.2c0.6-1.3,0.1-2.9-1.2-3.5
								c-0.2-0.1-0.3-0.1-0.5-0.2c-0.4-0.1-0.5,0-0.6,0c-0.2,0.2,0.2,0.7,0,1.3c0,0.1-0.1,0.2-0.2,0.4c-0.2,0.3-0.5,0.6-0.9,0.7
								c-0.6,0.2-1.2,0.2-1.8,0c-0.9-0.4-1.7-0.9-2.3-1.6c-0.8-0.6-1.4-1.4-1.9-2.3c-0.1-0.2-0.2-0.4-0.1-0.5s1.3,0.9,2.9,1.4
								c1,0.3,2.1,0.4,3.1,0.3c0.6-0.1,2.8-0.5,3.4-2.1c0.2-0.6,0.2-1.2,0-1.8c-0.3-1.1-1.2-2-2.3-2.3c-0.5-0.2-1.1-0.2-1.2,0
								s0.5,0.4,0.6,1c0.1,0.4,0,0.8-0.2,1.1c-0.2,0.3-0.4,0.5-0.7,0.7c-1,0.6-2.4,0-2.8-0.2c-1.2-0.5-2.1-1.5-2.6-2.7
								c-0.3-0.5-0.2-0.7-0.2-0.7s0.6,0.5,1.5,0.8c0.8,0.2,1.6,0.1,2.3-0.2c0.3-0.2,0.5-0.4,0.6-0.6c0.1-0.3,0.2-0.6,0.3-0.9
								c0.1-0.6,0.2-0.9,0-1.3c-0.1-0.1-0.1-0.2-0.2-0.2c-0.5-0.3-1,0.4-1.7,0.4c-0.5,0-0.9-0.3-1.4-0.7c-1.2-1.2-1.9-2.8-1.9-4.5
								c0-0.1,0-0.2,0.1-0.2c0.3-0.2,1,1.2,2.1,1.1c0.2,0,0.3,0,0.4-0.1c0.8-0.7-1.9-5.2-2.6-9.1c-0.1-0.4-0.1-0.6,0-0.6
								c0.4-0.2,2.7,2.9,3,5.4c0.1,0.6,0.1,1.2,0,1.8c-0.1,0.7-0.4,1.2-0.2,1.4s0.4,0,0.5,0c0.3-0.1,0.4-0.3,0.5-0.2
								s0.1,0.2,0.1,0.8c0,0.2,0,0.5,0,0.7c-0.1,0.5-0.5,0.7-0.4,0.8s0.1,0,0.5-0.1c0.6-0.2,0.6-0.2,0.8-0.3
								c0.2-0.1,0.4-0.2,0.6-0.3c0.3-0.2,0.3-0.4,0.6-0.7l0.3-0.2c0.1-0.1,0.2-0.2,0.3-0.4c0.1-0.1,0.2-0.3,0.3-0.4
								c0.1-0.1,0.2-0.1,0.3-0.2c0.2,0,0.5,0.1,0.6,0.3c0.2,0.1,0.4,0.3,0.7,0.4c0.2,0.1,0.2,0.1,0.5,0.2l0.5,0.2
								c0.4,0.1,0.4,0.1,0.5,0.1s0-0.1,0-0.2c0-0.1,0-0.3,0-0.4v-0.6c0-0.2,0-0.4,0-0.6c0-0.5-0.1-0.6,0-0.7s0.1,0,0.4,0h0.9h1.1
								c0.5,0,1.3-0.4,1.3-0.7c0.1-0.6-2.2-1.3-2-1.6c0-0.1,0.3-0.1,0.6-0.4c0.1-0.1,0.2-0.2,0.2-0.2c0-0.3-0.5-0.4-1.2-0.9
								c-0.3-0.2-0.8-0.6-0.7-0.9s0.5-0.2,0.5-0.4s-0.5-0.5-1.2-1.2c0,0-0.2-0.3-0.2-0.4s0.4,0.1,0.5-0.1c0.1-0.1,0.2-0.2,0.2-0.3
								c0.1-0.6-1.2-1.1-2.2-2.3c-0.4-0.5-0.7-1-0.9-1.6c-0.1-0.5-0.1-0.7-0.2-1.8c0-0.4-0.1-0.7-0.2-1.1c-0.3-0.9-0.9-1.7-1.7-2.2
								c-0.2-0.1-0.4-0.3-0.7-0.4c-0.3-0.1-0.6-0.2-0.9-0.3c-0.3,0-0.6,0-0.9,0c-0.3,0.1-0.7,0.2-1,0.4c-0.3,0.1-0.4,0.2-0.6,0.2
								c-0.2-0.1-0.4-0.4-0.3-0.6c0,0,0.1-0.6,1-0.9l0,0l0.3-0.1c0.6,0.2,1.1,0.4,1.6,0.6c0.8,0.2,1.6,0.2,2.4,0.1
								c0.3,0,0.4-0.1,0.5,0c0.6,0.2,0.4,1.3,0.8,2.8c0.3,0.8,0.6,1.7,0.9,2.4c0.3,0.9,0.7,1.7,1.2,2.5c0.6,0.9,0.4,0.3,1.5,1.8
								c0.2,0.2,0.3,0.4,0.5,0.4c0.5,0,0.6-1.7,0.8-1.7s0.4,5.3,1.2,6.5c0.2,0.3,1.1,1.3,1.3,1.5l0,0c0.1,0.1,0.4,0.4,0.5,0.3
								s0-0.4,0-0.4c-0.2-0.8-0.3-1.7-0.4-2.5c-0.2-1.3-0.1-1.2-0.3-3.1c0-0.4-0.1-0.9-0.1-1.3c0-0.5,0-0.7,0.1-0.7s0.5,2.2,1.6,4.9
								c0.5,1.3,1.2,2.6,1.9,3.8c0.5,0.8,2.4,3.7,3.3,3.4s0.9-3.2,1.2-4.2c0,0,0-0.1,0.1-0.3s0.1-0.5,0.2-0.8s0.1-0.7,0.1-1.1
								s0-0.6,0.1-1.4s0-1.2,0-1.3c0-0.8,0-1.2,0-1.7c0-0.6-0.1-0.8,0-0.9s0.8,0.8,1.1,1.5c0.1,0.1,0.2,0.4,0.4,0.9l0.2,0.4
								c0.2,0.4,0.5,0.7,0.8,1.1c0.9,1,1.3,1.5,1.4,1.6c0.7,0.8,1.1,1.2,1.5,1.3c0.7,0.2,1.5,0.1,1.6-0.1s-0.2-0.2-0.6-0.6
								c-0.3-0.3-0.5-0.6-0.7-0.9c-0.3-0.4-0.6-0.8-0.8-1.2c-0.2-0.4-0.4-0.9-0.6-1.4c-0.2-0.5-0.2-0.5-0.4-1s-0.3-0.5-0.5-1
								c-0.2-0.3-0.3-0.7-0.4-1c-0.1-0.3-0.4-1.2-0.1-1.3s0.3,0.2,0.9,0.7s0.2,0.2,1.4,1.2c0.6,0.5,0.8,0.7,1,0.9
								c1,0.8,2.1,1.5,3.2,2.1c0.9,0.5,1.8,0.8,2.8,0.9c0.1,0,0.1,0,0.2-0.1c0.2-0.2-0.1-0.6,0-1.5c0-0.3,0-0.6,0-0.8v-0.2
								c0-0.5-0.1-0.9-0.2-1.3c-0.1-0.5-0.1-0.5-0.2-0.9s-0.1-0.4-0.1-0.6c-0.1-0.5-0.1-0.6-0.2-1c-0.1-0.3-0.2-0.6-0.4-0.9
								c-0.2-0.5-0.1-0.5-0.3-1.1c-0.1-0.5-0.3-0.9-0.6-1.3c-0.1-0.3-0.1-0.2-0.5-1l-0.6-1.2c-0.1-0.3-0.3-0.5-0.4-0.8
								c-0.2-0.4-0.4-0.6-0.7-1c0-0.1-0.1-0.2-0.2-0.4s-0.1-0.2-0.2-0.3c-0.2-0.3-0.2-0.4-0.3-0.6s-0.1-0.2-0.2-0.3s0.9,0.5,1.8,1
								c0.8,0.4,1.6,0.8,2.5,1.1c0.8,0.4,1.7,0.6,2.6,0.4c0.1-0.1,0.6-0.2,0.6-0.5c0-0.1,0-0.2-0.1-0.3c-0.3-0.4-0.9-0.4-1.2-0.4
								c-1.7,0-2.6-1.8-4.1-3.1c0,0-0.1-0.1-0.1-0.1c0.8-0.1,1.6,0,2.4,0.1c1.6,0,2.3-0.2,2.7-0.6c0.1-0.1,0.1-0.1,0.2-0.2
								c0.8-1.4-4.1-6.2-6-7.1c0,0-0.4-0.2-0.3-0.3s1.5,0.2,3.5,0c0.9,0,1.8-0.3,2.5-0.9c0.2-0.3,0.5-0.7,0.4-0.8s-0.4,0.1-0.9,0.2
								c-0.6,0.1-1.1,0.1-1.7,0c-0.6-0.1-0.4-0.1-1.5-0.2c-0.5,0-1.1-0.2-1.5-0.5c-0.1-0.1-0.2-0.2-0.2-0.2
								c-0.1-0.8,5.8-1.9,5.7-3.3c0-0.9-2.4-1.9-4.4-2.2c-0.4,0-0.9-0.1-0.9-0.2c0-0.4,4.4-0.4,5.4-2.4c0-0.1,0.2-0.4,0.1-0.6
								c-0.3-0.3-1.6,0.6-3.7,1c-0.1,0-0.5,0.1-0.5,0c-0.1-0.3,3.6-1.8,4.1-3.7c0-0.1,0-0.2,0-0.3c-0.2-0.9-2.8-1.4-4.5-1
								c-0.1,0-0.3,0.1-0.3,0s0.3-0.5,3.5-3c0.6-0.4,1.1-1,1.4-1.8c0-0.1,0.2-0.8,0-0.9s-0.6,0.4-2.2,1.7c-0.6,0.5-1.2,0.8-1.9,1
								c-0.2,0-0.3,0-0.3,0s0.8-0.8,2.1-2.1s0.3-0.5,2.1-2.8c0.1-0.1,0.2-0.3,0.2-0.4s-0.2-0.4-2.5,0c-1.5,0.1-3.1,0.3-4.6,0.6
								c-0.1,0-0.2,0.1-0.3,0c-0.2-0.3,2.5-2.8,4.7-5.5c0.1-0.1,0.2-0.3,0.2-0.4c-0.3-0.9-6.2,0.4-10.5,1.6
								c-3.8,1.1-6.1,1.8-9.1,3.7c-2.9,1.8-5.3,4.2-7,7.1c-0.3,0.6-0.6,1.2-0.9,1.8c-0.8,2-1.2,4.1-1,6.3c0.1,1.1,0.4,2.2,0.9,3.2
								c0.3,0.6,0.7,1.1,1.2,1.4c0.4,0.3,1,0.6,1.5,0.6c0.6,0,1.3,0,1.9-0.2c0.3-0.1,0.5-0.1,0.6,0c0.3,0.2,0,1,0,1.1
								c-0.2,0.5-0.5,0.9-0.9,1.2c-0.3,0.2-0.6,0.3-1,0.4c-0.5,0.2-1,0.3-1.5,0.4c-2.3,0.6-2.8,0.6-3.4,0.3l-0.1-0.1
								c-0.9-0.7-0.1-2.5-0.8-3.1c-0.1,0-0.1-0.1-0.1-0.2c0-0.3,0.8-0.5,1.2-0.9c0,0,0.1-0.1,0.1-0.2s-0.1,0-0.3,0
								c-0.1,0-0.2-0.1-0.4-0.1c-0.7-0.4-1.2-1.1-1.3-1.8l0,0c-0.2-0.9-0.4-1.8-0.4-2.7c0-0.1,0-0.2,0.1-0.2c0.2-0.4,0.8-0.2,1-0.5
								s-0.5-0.9-0.9-1.8c-0.3-0.6-0.2-1.5,0-3.4c0.1-1.1,0.2-2.1,0.1-3.2c0-0.2-0.1-0.6-0.1-0.9c-0.1-0.3-0.1-0.6-0.2-0.9
								c-0.1-0.2-0.2-0.4-0.3-0.6c-0.1-0.1-0.2-0.2-0.2-0.2s0.2,0,0.5,0c0.3-0.1,0.5-0.2,0.6-0.4c0.2-0.2,0.3-0.5,0.3-0.8
								c0.1-0.4,0-0.9-0.2-1.3c-0.1-0.2-0.4-0.5-0.6-0.4s-0.1,0.3-0.3,0.5c-0.2,0.2-0.5,0.3-0.8,0.4c-0.1,0.1-0.3,0.1-0.4,0.1
								c-0.1,0-0.3,0-0.3,0s0.1-0.1,0.2-0.2c0.1-0.1,0.2-0.2,0.3-0.4c0.1-0.2,0.2-0.4,0.2-0.7c0-0.2,0-0.3-0.1-0.5
								c0-0.2-0.1-0.4-0.2-0.6c-0.1-0.2-0.2-0.5-0.4-0.5s-0.1,0.3-0.3,0.5c-0.2,0.2-0.4,0.3-0.7,0.4c-0.8,0.2-1.6,0.1-2.4-0.1
								c-0.1,0-0.3-0.1-0.6-0.1l-0.8-0.1c-0.4,0-0.6-0.1-0.8-0.1c-0.3,0-0.5-0.1-0.8-0.1c-0.5-0.1-0.9-0.1-1.4-0.1h-1.1
								c-0.3,0-0.5,0-0.8,0c-0.4,0.1-0.9,0.3-1.1,0.6c-0.4,0.5-0.5,1.1-0.2,1.7c0.2,0.2,0.3,0.1,0.9,0.2c0.3,0.1,0.6,0.3,0.9,0.5
								c0.4,0.2,0.8,0.5,1.1,0.9c0.3,0.3,0.3,0.4,0.5,0.6c0.3,0.2,0.7,0.3,1,0.3c0.5,0.1,0.9,0.3,1.4,0.6c0.3,0.2,0.7,0.5,0.9,0.8
								c0.5,0.4,0.8,0.8,1.1,1.3c0.1,0.3,0.2,0.6,0.1,0.9c0,0.1-0.1,0.3-0.3,0.4c-0.2,0.1-0.4,0.1-0.6,0c-0.2-0.1-0.3-0.2-0.4-0.3
								c-0.3-0.2-0.6-0.4-1-0.5c-0.6-0.2-1.5-0.2-1.6,0.1s0.9,0.5,1.5,1.6c0,0.1,0.1,0.1,0.1,0.2c0.3,0.7,0.3,1.6,0.1,2.3
								c-0.3,0.5-0.6,1-1,1.5c-0.2,0.3-0.4,0.5-0.7,0.7c-0.3,0.2-0.6,0.4-1,0.4c-0.4,0-0.5-0.1-0.6,0c-0.1,0.3-0.1,0.6,0.1,0.9
								c0.2,0.3,0.6,0.3,0.7,0.7c0,0.1,0,0.1,0,0.2c0.1,0.7-1.6,2.8-3.8,3c-0.4,0-0.9,0-0.9,0.2s0.3,0.9,0.9,1.3
								c0.1,0.1,0.3,0.2,0.3,0.3s-0.4,0.4-0.7,0.8c-0.4,0.7-0.6,1.4-0.8,2.1c-0.1,0.4-0.1,0.7-0.4,0.8c-0.3,0.1-0.6,0.1-0.9,0.1"/>
							<g id="Efekty_Effects_2">
								<polyline class="st9" points="201.8,308.8 201.8,304.5 200.4,301.9 199.4,303.7 								"/>
								<polyline class="st9" points="201.8,304.5 203.1,301.9 203.9,303.4 								"/>
								<polyline class="st9" points="203.1,302 203.9,297.9 203.9,293 202.6,291.4 201.8,292.2 201.1,291.4 199.8,293 199.9,297.9 
									200.1,299.6 200.6,302.2 								"/>
								<line class="st9" x1="201.8" y1="300.5" x2="201.8" y2="292.1"/>
								<line class="st9" x1="203.9" y1="298" x2="205.2" y2="299.4"/>
								<line class="st9" x1="199.9" y1="297.9" x2="198.3" y2="299.3"/>
								<line class="st9" x1="199.8" y1="293" x2="198.3" y2="294"/>
								<line class="st9" x1="203.9" y1="293" x2="205.3" y2="294.1"/>
								<polyline class="st9" points="202.6,291.4 203.5,288.2 203.7,285.3 202.1,282.8 201.4,282.8 199.9,285.3 200,287.7 
									200.6,290.2 201.1,291.4 								"/>
								<line class="st9" x1="201.8" y1="289" x2="201.8" y2="282.8"/>
								<path class="st9" d="M202.1,282.7l1.3-3l1-2v-3l0.6-3.5l0.5-1.8c0.1-0.2,0.2-0.5,0.2-0.7s0.1-0.2,0.1-0.4"/>
								<polyline class="st9" points="205.4,267.6 204.4,267.1 203.9,267.3 202.6,267.3 202.1,266.9 201.2,267.3 200,267.4 
									199.6,267.1 199.1,267.5 198.8,267.5 198,267.3 								"/>
								<path class="st9" d="M199.6,278.8"/>
								<polyline class="st9" points="197.6,267.9 197.8,268.8 198,269.7 198.2,270.7 198.4,271.6 198.5,272.7 198.7,273.9 
									198.8,274.9 199.1,276.7 199.1,277.7 201.4,282.8 								"/>
								<line class="st9" x1="200.2" y1="284.9" x2="199" y2="286.4"/>
								<line class="st9" x1="203.7" y1="285.3" x2="204.5" y2="286.4"/>
								<polyline class="st9" points="189.1,277.7 190.9,277.1 192,276.5 193.1,275.7 193.3,275.4 194.1,275.1 195.1,275.1 
									196.1,274.3 197.1,273.6 								"/>
								<polyline class="st9" points="188.4,279.6 189.7,279.6 190.9,279.4 192.2,278.5 193,277.8 193.4,277.5 194.4,277.4 
									195.7,277.1 196.6,276.6 197.4,275.7 								"/>
								<polyline class="st9" points="187,282.1 188.6,281.9 190.1,281.8 191.2,281.4 192.2,280.4 192.9,279.8 193.1,279.6 
									194.5,279.6 195.3,279.3 196.4,278.6 196.8,278.1 								"/>
								<polyline class="st9" points="195.4,286.1 194.7,285 194.1,283.9 194.1,282.7 194.1,281.3 								"/>
								<polyline class="st9" points="192.1,285.6 191.8,284.4 191.8,283.5 190.7,284 189.2,284.6 								"/>
								<polyline class="st9" points="191.8,283.6 191,284.5 190.2,285.5 190.1,285.6 								"/>
								<polyline class="st9" points="207.4,286.4 208.3,285.9 209.3,284.5 209.6,282.8 209.5,281.3 								"/>
								<line class="st9" x1="213.3" y1="285.5" x2="211.9" y2="283.6"/>
								<path class="st9" d="M214.3,284.5l-2.5-1l-0.5,2.2"/>
								<polyline class="st9" points="216.4,282.2 214.6,282.2 212.9,281.8 210.8,280.3 210.5,279.8 209.1,279.8 208.5,279.4 
									207.4,278.8 206.8,278.1 								"/>
								<path class="st9" d="M215.2,279.8l-0.8-0.1l-1.5-0.3l-1.4-1l-1.1-1h-0.9l-1-0.2l-0.9-0.5l-1.3-1.1"/>
								<polyline class="st9" points="214.2,277.8 212.8,277.5 211.5,276.8 210.2,275.3 209,275.3 207.6,274.4 206.4,273.6 								
									"/>
								<path class="st9" d="M198,267.2c0,0,0,0,0.2-0.1l1.9-1.9l1.2,0.5l1.7,0.1l1.1-0.6l1.6,2h0.1l1.7-2l-2.1-2.4l-1.2,0.7
									l-1.6-0.1l-1-0.6l-1.2,0.7h-1.5l-0.8-0.6l-0.4,1l-1,1.3L198,267.2"/>
								<polyline class="st9" points="196.8,265.1 196.1,264.7 195.5,263.2 195.1,261.6 194.4,261.8 194.1,260.4 194.1,259.3 
									194.1,257.7 193.7,257.4 193.6,256.7 193.6,255.1 193.7,255 								"/>
								<polyline class="st9" points="207.4,265.3 208.4,264 209,262.4 209.1,261.6 209.5,261.4 209.7,260.3 209.8,259 209.8,257.2 
									210.4,257 210.6,256.1 210.6,254.9 								"/>
								<polyline class="st9" points="195,261.6 196.8,259.1 198.6,260 199.9,260 201.4,259.1 203,260 204.6,260.1 206.4,259.1 
									209.1,261.4 								"/>
								<polyline class="st9" points="193.9,257.6 197.6,255.5 199.6,258.5 202.2,255.1 205.1,258.5 207.1,254.4 209.8,257 								
									"/>
								<polyline class="st9" points="195.1,255 197.1,251.5 198,251.4 200.2,249.3 200.1,251.2 199.7,252.4 199.6,256.3 								
									"/>
								<polyline class="st9" points="200.1,251.2 200.6,252.6 200.6,253.1 200.6,253.8 200.4,254.6 201.3,254.6 202.2,254.2 
									203.1,253.7 203.9,252.7 204.8,251 205.4,252.3 206.6,253.2 207.6,253.4 207.5,252.6 207.4,251.6 207.5,250.6 208.3,251.4 
									209,251.6 209.8,251.6 								"/>
								<line class="st9" x1="197.1" y1="251.5" x2="195.5" y2="251.3"/>
								<line class="st9" x1="205.1" y1="256.4" x2="204.7" y2="251.3"/>
								<line class="st9" x1="209.3" y1="254.9" x2="207.6" y2="250.7"/>
								<path class="st9" d="M202.8,245c-0.8,1.3-2.3,1.9-3.8,1.4"/>
								<path class="st9" d="M206.7,244.8c0.1,0.1,0.1,0.3,0.2,0.4c0.4,0.4,1,0.5,1.5,0.5c0.1,0,0.3,0,0.4,0"/>
								<path class="st9" d="M197,232.2c0.1-0.1,0.3-0.2,0.4-0.3c0.4-0.2,0.8-0.4,1.2-0.5c0.3-0.1,0.6-0.2,0.9-0.2
									c0.4-0.1,0.9-0.1,1.4,0c0.6,0.2,1.2,0.5,1.8,0.9c0.3,0.2,0.6,0.3,0.9,0.4c0.4,0.1,0.7,0.3,1.1,0.3"/>
								<path class="st9" d="M199,231.8c-0.1,0.9,0.4,1.7,1.3,2c0.3,0.1,0.5,0.1,0.8,0.1c0.4,0.1,0.9,0.1,1.3-0.1
									c0.3-0.3,0.6-0.6,0.8-1"/>
								<path class="st11" d="M199.8,231.7c0,0.2,0,0.5,0,0.6c0,0.1,0,0.2,0,0.4c0,0.1,0.1,0.2,0.2,0.3c0.1,0.1,0.2,0.1,0.3,0.2
									c0.2,0,0.4,0,0.6,0c0.3,0,0.5,0,0.8-0.1c0.1-0.1,0.3-0.2,0.3-0.3c0.1-0.1,0.1-0.2,0.1-0.4
									C202.1,232,200.1,231.8,199.8,231.7z"/>
								<path class="st12" d="M213.7,258.7"/>
								<path class="st13" d="M201.6,232.1l-0.2,0.2c0,0-0.1,0.3,0,0.4c0,0,0.1,0.1,0.2,0.1c0.1,0,0.2-0.1,0.2-0.2
									c0-0.1,0-0.2,0.1-0.2L201.6,232.1z"/>
								<path class="st8" d="M210,260.3c0.5,0,1.2,0,2.1-0.1c1.5-0.1,3-0.3,4.4-0.6c1.3-0.2,2.6-0.6,3.9-1.2
									c1.6-0.8,2.7-2.2,3.3-3.8c0.2-0.6,0.3-1.3,0.2-2l-1.1-0.9l-1,0.7v0.4c-0.1,2.1-2.1,3.6-2.7,3.8c-1.3,0.7-2.8,1.1-4.3,1.2
									l-4.9,0.3L210,260.3z"/>
								<path class="st8" d="M222.8,251.7l1,0.9h0.4c0.5,0,2.1-0.1,2.5-0.7s-0.6-1.9-2.2-3.2c0-0.4,0-0.8,0-1.2
									c-0.1-0.1-0.1-0.2-0.2-0.2c-1.3-1.6-1.5-1.7-1.6-1.7c-0.8-0.1-1.6,2.1-1.7,2.4c0,0.3,0,0.7,0,1c-0.1,0-0.1,0-0.2,0
									c-0.9,0.1-1.4,1.5-1.5,1.7c0,0.6,0,1.2,0,1.9h0.3l2.2-0.1L222.8,251.7z"/>
								<polyline class="st9" points="208.4,264 209.1,264.4 210.6,264.4 211.9,263.2 213.2,264 214.4,264.1 215.6,263.7 
									216.6,262.6 217.2,262.9 218,263 219.2,263 220.6,261.9 220.6,261.3 221.6,261.3 222.7,261.3 223.6,261.1 224.3,260.1 
									224.3,258.8 224.3,258 225.1,258 225.6,257.8 226.4,257 226.6,256.1 226.6,254.8 226.2,254 227.4,253.5 228.1,252.6 
									228.1,251.3 228,250.3 227.5,249.8 227.1,249.4 227.6,248.6 227.6,246.9 227.2,246.3 225.9,245.7 224.8,245.7 224.8,244.6 
									224.1,243.8 223.3,243.6 222.2,243.6 221.2,244 220.9,245 220.9,245.6 220.9,245.9 219.2,245.9 218.3,246.7 218,247.3 
									218,248.9 218.4,249.2 218.8,249.7 218.4,250.4 218,250.9 217.5,251.4 217.3,251.6 								"/>
								<line class="st9" x1="210.7" y1="264.3" x2="211.2" y2="267.4"/>
								<line class="st9" x1="213.2" y1="264" x2="215.2" y2="272.8"/>
								<line class="st9" x1="216.6" y1="262.6" x2="217.8" y2="267"/>
								<line class="st9" x1="220.7" y1="261.3" x2="223.1" y2="265"/>
								<line class="st9" x1="224.4" y1="258.3" x2="228.1" y2="260.6"/>
								<line class="st9" x1="226.3" y1="254.2" x2="230.6" y2="255.3"/>
								<line class="st9" x1="227.1" y1="249.4" x2="231" y2="249.1"/>
								<line class="st9" x1="225.5" y1="245.7" x2="228.9" y2="243.3"/>
								<polyline class="st9" points="223.2,240 222.1,241.8 222.1,243.6 								"/>
								<polyline class="st9" points="216.8,275.6 216.9,273.6 216.7,268.5 217.8,269.3 219,275.5 219.2,276.1 								"/>
								<polyline class="st9" points="226.4,256.9 227.2,257.3 227.7,257.8 228.3,258.3 229,259.1 229.9,260.6 230.3,261.5 
									230.3,262.4 226.4,262.4 226,262.2 223.6,261.1 224.8,263.6 224.8,265.7 224.3,267.4 221,265.7 219.2,263 219.4,267.4 
									218.3,269.5 217.8,269.3 216.7,268.5 214.3,264.3 214.1,264.1 								"/>
								<polyline class="st9" points="226.5,256.8 228,257.3 228.3,257.4 229.4,257.4 230.5,257.4 231.6,257.1 233.3,256.3 
									232.2,254.4 230.9,253.4 228.2,252.2 								"/>
								<polyline class="st9" points="228.2,252 229.9,252 231.1,251.6 232.1,250.8 233,250 233.7,249.2 234.1,248.8 232.6,247.8 
									231.5,247.3 230.6,247.1 228.1,247.2 227.6,247.2 								"/>
								<polyline class="st9" points="227.6,247.1 229.3,245.9 230,244.9 230.8,243.5 231.1,242.2 231.2,241.2 228,241.4 227,241.9 
									225.9,242.4 224.4,243.4 225.3,241.4 225.9,240 226.1,239.2 226.4,237.5 226.4,237 225.1,237.1 223,237.7 221.4,238.8 
									220.1,240.3 219.5,241.8 219.4,243.6 219.7,244.5 220.5,245.7 								"/>
								<path class="st9" d="M217.8,247.5c-1.4,0.1-2.6-1-2.7-2.4c0-0.1,0-0.2,0-0.3c0-1.4,0.3-2.9,1-4.1c1.7-2.8,3.9-5.2,6.5-7.1
									c3.1-2.1,6.6-3.6,10.3-4.4"/>
								<path class="st9" d="M223,237.6c0.1-0.2,0.2-0.3,0.4-0.5c0.4-0.5,0.8-0.8,1.3-1.2c1.1-0.8,2.3-1.5,3.6-2.1
									c1-0.4,2-0.7,3-0.9c1.5-0.4,2.7-0.7,3.6-0.9"/>
								<path class="st9" d="M226.1,239.6c1.6-0.6,3.1-1.3,4.6-2.1l1.1-0.6c1-0.5,1.6-0.8,2.2-1.1s1.5-0.8,2.6-1.4"/>
								<path class="st9" d="M230.4,241.3c2.1-0.7,4.1-1.8,5.9-3.2c0.5-0.4,0.9-0.8,1.4-1.1"/>
								<polyline class="st9" points="233.4,240 235.3,240 237.4,239.9 								"/>
								<path class="st9" d="M230.4,244.1c0.4-0.1,1.1-0.1,1.6-0.2c2.2-0.4,4.4-1,6.5-1.6"/>
								<path class="st9" d="M230.6,247.1c1-0.2,2.4-0.6,3.5-0.9c1.7-0.5,3.4-1.1,4.8-1.6"/>
								<path class="st9" d="M233.4,246.4c0.5,0.1,1.4,0.2,2,0.3c0.8,0.1,1.6,0.2,2.3,0.2"/>
								<line class="st9" x1="233.1" y1="249.9" x2="239.5" y2="249.6"/>
								<path class="st10" d="M231.3,253.5c0.8-0.1,1.7-0.2,2.6-0.4s1.8-0.4,2.6-0.6"/>
								<path class="st10" d="M232.7,253.3l3.3,1.7"/>
								<line class="st9" x1="231.4" y1="257.2" x2="238.8" y2="260.8"/>
								<path class="st10" d="M230,260.6c0.6,0.4,1.3,0.7,1.9,1c0.3,0.1,0.6,0.3,1,0.4c1.3,0.5,2.7,0.9,4.1,1.2"/>
								<line class="st9" x1="232.8" y1="261.9" x2="234.8" y2="265"/>
								<line class="st9" x1="228.1" y1="262.4" x2="236.4" y2="274.6"/>
								<path class="st9" d="M224.7,265.9c0.4,0.9,0.9,1.7,1.4,2.6c1.3,2.1,2.7,4.1,4.3,5.9"/>
								<path class="st9" d="M226.4,268.6c0.4,1.1,0.6,2.3,0.8,3.5c0.2,1.4,0.4,2.8,0.4,4.2"/>
								<line class="st9" x1="221.3" y1="265.8" x2="224.7" y2="282.2"/>
								<path class="st8" d="M193.9,260.5c-0.5,0-1.3,0-2.1-0.1c-1.5-0.1-3-0.3-4.5-0.6c-1.4-0.2-2.7-0.6-4-1.2
									c-1.6-0.8-2.8-2.2-3.4-3.8c-0.2-0.6-0.3-1.3-0.2-2l1.1-0.9l1,0.7c0,0.1,0,0.3,0,0.4c0.1,2.1,2.2,3.6,2.8,3.9
									c1.4,0.7,2.8,1.1,4.4,1.2l5.1,0.3L193.9,260.5z"/>
								<path class="st8" d="M180.7,251.8l-1.1,0.9h-0.4c-0.5,0-2.2-0.1-2.5-0.7s0.6-1.9,2.3-3.2c0-0.4,0-0.8,0-1.2
									c0.1-0.1,0.1-0.2,0.2-0.2c1.4-1.6,1.5-1.7,1.6-1.7c0.8-0.1,1.7,2.1,1.7,2.4c0,0.3,0,0.7,0,1h0.2c0.9,0.1,1.5,1.5,1.5,1.8
									c0,0.6,0,1.2,0,1.9H184l-2.3-0.2L180.7,251.8z"/>
								<polyline class="st9" points="195.9,264.1 194.7,264.6 193.2,264.6 191.9,263.4 190.5,264.2 189.3,264.3 188.1,263.9 
									187.1,262.7 186.4,263 185.6,263.2 184.4,263.1 183,262.1 183,261.4 182,261.4 180.8,261.4 179.9,261.2 179.1,260.3 
									179.1,258.9 179.1,258.2 178.3,258.2 177.8,257.9 177.1,257.1 176.8,256.2 176.8,254.9 177.2,254.2 175.9,253.6 
									175.3,252.7 175.3,251.4 175.4,250.4 175.9,249.9 176.3,249.5 175.8,248.7 175.8,247 176.2,246.4 177.6,245.8 178.7,245.8 
									178.7,244.7 179.4,243.9 180.1,243.7 181.4,243.7 182.3,244.1 182.7,245.1 182.7,245.7 182.7,245.9 184.4,245.9 
									185.3,246.8 185.6,247.4 185.6,248.9 185.2,249.3 184.9,249.8 185.2,250.4 185.6,251 186.2,251.5 186.3,251.7 								"/>
								<line class="st9" x1="186.9" y1="262.9" x2="185.7" y2="267.5"/>
								<line class="st9" x1="182.9" y1="261.4" x2="180.4" y2="265.2"/>
								<line class="st9" x1="179" y1="258.4" x2="175.3" y2="260.8"/>
								<line class="st9" x1="177.1" y1="254.3" x2="172.7" y2="255.4"/>
								<line class="st9" x1="176.3" y1="249.5" x2="172.3" y2="249.2"/>
								<line class="st9" x1="177.9" y1="245.8" x2="174.5" y2="243.4"/>
								<polyline class="st9" points="180.2,240 181.4,241.8 181.4,243.7 								"/>
								<polyline class="st9" points="186.7,276.1 186.6,274.1 186.8,268.9 185.7,269.7 184.5,276 184.3,276.6 								"/>
								<polyline class="st9" points="177,257 176.2,257.5 175.7,257.9 175.1,258.4 174.4,259.2 173.4,260.7 173,261.7 173,262.5 
									177,262.5 177.4,262.3 179.9,261.2 178.7,263.8 178.7,265.8 179.2,267.5 182.6,265.8 184.4,263.1 184.2,267.5 185.3,269.6 
									185.9,269.5 186.9,268.7 189.4,264.5 189.7,264.2 								"/>
								<polyline class="st9" points="177,257 175.4,257.4 175.1,257.6 173.9,257.6 172.8,257.5 171.6,257.3 170,256.4 171.1,254.6 
									172.4,253.5 175.2,252.3 								"/>
								<polyline class="st9" points="175.2,252.1 173.5,252.1 172.2,251.7 171.1,250.9 170.3,250.1 169.5,249.3 169.1,248.9 
									170.6,247.9 171.8,247.3 172.7,247.2 175.3,247.2 175.8,247.3 								"/>
								<polyline class="st9" points="175.8,247.1 174,246 173.4,244.9 172.5,243.5 172.2,242.3 172.1,241.3 175.3,241.4 
									176.4,241.9 177.5,242.5 179,243.5 178.2,241.5 177.5,240 177.3,239.2 177,237.5 177,237 178.3,237.1 180.5,237.8 
									182.1,238.8 183.5,240.3 184.1,241.8 184.2,243.7 183.9,244.6 183.1,245.8 								"/>
								<path class="st9" d="M185.9,247.6c0.2,0,0.5,0,0.7-0.1c0.6-0.1,1.1-0.5,1.5-0.9c0.4-0.5,0.5-1.1,0.5-1.7
									c0-1.4-0.3-2.9-1-4.1c-1.7-2.8-4-5.2-6.7-7.1c-3.2-2.1-6.8-3.7-10.6-4.4"/>
								<path class="st9" d="M180.5,237.7c-0.1-0.2-0.2-0.3-0.4-0.5c-0.4-0.5-0.8-0.8-1.3-1.2c-1.2-0.8-2.4-1.5-3.7-2.1
									c-1-0.4-2-0.7-3.1-0.9c-1.5-0.4-2.8-0.7-3.6-0.9"/>
								<path class="st9" d="M177.3,239.6c-1.6-0.6-3.2-1.3-4.7-2.1c-0.1-0.1-0.5-0.3-1.1-0.6c-1-0.5-1.6-0.8-2.2-1.1
									s-1.6-0.8-2.7-1.4"/>
								<path class="st9" d="M172.9,241.3c-2.2-0.8-4.2-1.9-6-3.3c-0.5-0.4-1-0.8-1.4-1.2"/>
								<polyline class="st9" points="170,240.1 168,240 165.7,239.9 								"/>
								<path class="st9" d="M172.9,244.2c-0.5-0.1-1.1-0.1-1.6-0.2c-2.3-0.4-4.5-1-6.7-1.7"/>
								<path class="st9" d="M172.7,247.2c-1.1-0.2-2.4-0.6-3.6-0.9c-1.8-0.5-3.4-1.1-4.9-1.6"/>
								<path class="st9" d="M169.9,246.5c-0.6,0.1-1.5,0.2-2.1,0.3c-0.8,0.1-1.6,0.2-2.4,0.3"/>
								<line class="st9" x1="170.2" y1="250" x2="163.6" y2="249.6"/>
								<path class="st10" d="M172.1,253.7c-1-0.1-2-0.3-3-0.6s-2.1-0.5-3-0.8"/>
								<path class="st10" d="M170.4,253.4l-3.2,1.7"/>
								<line class="st9" x1="171.8" y1="257.3" x2="164.3" y2="260.9"/>
								<path class="st10" d="M173.4,260.7c-0.6,0.3-1.2,0.6-2,1l-1,0.4c-1.3,0.5-2.7,0.9-4.1,1.1"/>
								<line class="st9" x1="170.4" y1="262.1" x2="168.6" y2="265"/>
								<line class="st9" x1="175.2" y1="262.6" x2="166.7" y2="274.8"/>
								<path class="st9" d="M178.7,265.9c-0.5,0.9-1,1.8-1.6,2.7c-1.4,2.2-3,4.3-4.8,6.1"/>
								<path class="st9" d="M177,268.9c-0.7,2.4-1.1,4.9-1.1,7.4"/>
								<line class="st9" x1="182.2" y1="266" x2="178.7" y2="282.4"/>
								<line class="st9" x1="193.2" y1="264.6" x2="192.4" y2="267.3"/>
								<line class="st9" x1="190.5" y1="264.2" x2="188.4" y2="272.7"/>
							</g>
						</g>
						<g id="Dziub_Beak_">
							<path class="st14" d="M202,236.8c0,0-1.6-0.9-1.7-0.9s-0.5-0.1-0.7-0.1c-0.2,0-0.5,0-0.8,0c-0.3,0-0.6,0.1-0.8,0.2
								c-0.1,0.1-0.4,0.3-0.5,0.4c-0.3,0.1-0.7,0.3-1,0.4c-0.3,0.1-0.6,0.2-0.9,0.4c-0.2,0-0.7,0.1-0.8,0.1c-0.3,0-0.6,0.1-0.9,0.1
								c-0.2,0-0.4-0.1-0.6-0.2c-0.2-0.1-0.5-0.2-0.7-0.3c-0.1-0.1-0.2-0.4-0.4-0.4c-0.2,0-0.3,0.2-0.4,0.4c0,0.2,0.1,0.3,0.2,0.4
								c0.2,0.3,0.4,0.6,0.7,0.8c0.2,0.1,0.4,0.2,0.6,0.3c0,0,0.5,0.1,0.7,0.1c0.4,0,1.2,0,1.6-0.1c0.5-0.1,0.9-0.1,1.4-0.3
								c0.4-0.1,1-0.7,1.3-0.8c0.2-0.1,0.4-0.2,0.7-0.2c0.3-0.1,0.6-0.1,0.9-0.1c0.2,0,0.5,0,0.7,0c0.2,0,0.4,0.1,0.6,0.1l0.5,0.3
								c0,0,0.3,0.2,0.4,0.1s0.1-0.2,0.1-0.2L202,236.8z"/>
							<path class="st15" d="M196.2,232.3h-1.5l-0.8,0.4l-0.6,0.3l-0.6,0.6l-0.1,0.6c0,0,0,0.6,0,0.7c0,0.2,0.1,0.5,0.2,0.7l0.2,0.6
								l0.4-0.1l0.6-0.4l0.6-0.2h0.7l0.8,0.1l0.4,0.2l0.4,0.1l0.5-0.1h0.5h0.5c0.2,0,0.3,0.1,0.5,0.1l1.1,0.2l0.6,0.2l0.5,0.2
								l0.5,0.2l0.2,0.2l0.1,0.2l-0.1,0.3h-0.5l-0.4-0.2c0,0-0.3-0.1-0.3-0.1l-0.4-0.1c-0.2,0-0.3,0-0.5,0h-0.5l-0.5,0.1l-0.4,0.1
								l-0.3,0.2l-0.2,0.2l-0.1,0.3v0.3l-0.1,1l0.1,0.1l0.1,0.1l0.6-0.5l0.4-0.3l0.5-0.1l0.5-0.1l0.4-0.1h1.1l0.2,0.2l0.6,0.2
								l0.4,0.2c0.1,0,0.2,0.1,0.3,0.1h0.7l0.2-0.4l-0.1-0.6l-0.2-0.8l-0.6-0.7l-0.9-0.8l-1.2-0.6l-0.9-0.3l-0.6-0.3l-0.4-0.5
								l-0.6-0.5l-0.9-0.5l-0.6-0.3L196.2,232.3z"/>
						</g>
						<g id="Korona_Crown_2">
							<path class="st8" d="M197.5,229.8c-0.9-1.9-1.8-3.9-2.5-5.9c-0.1-0.3-0.2-0.7-0.3-1c0.5-0.5,0.9,0.3,1.2,0.3
								c0.3-0.1,0.5-0.2,0.7-0.4c0.2-0.2,0.5-0.3,0.7-0.5c0.3-0.1,0.6-0.2,0.9-0.2c0.2,0,0.6-0.1,0.8-0.1s1.2-0.1,1.3-0.1h0.2
								c-0.1-0.5,0-1,0.4-1.2l0.3-0.4l0.1-0.5v-0.2h-0.8v-0.9h0.8v-1h0.9v1h0.9v0.9h-0.9l0.1,0.7c0.1,0.1,0.3,0.3,0.4,0.4
								c0.1,0.1,0.1,0.2,0.2,0.3c0.1,0.3,0.2,0.6,0.1,0.9c0,0,0.6-0.1,0.8,0c0.3,0,0.7,0,1,0.1c0.2,0.1,0.7,0.3,0.9,0.4
								s0.6,0.2,0.8,0.3c0.3,0.2,0.6,0.3,0.8,0.5c0,0,0.1,0.2,0.2,0.2c0.1-0.1,0.3-0.2,0.4-0.2c0.2-0.1,0.4-0.1,0.6-0.1
								c0.1,0,0.1,0.1,0.2,0.2c0,0.1-0.1,0.3-0.2,0.4l-0.5,1.5l-0.9,2.2l-0.4,0.9l-0.4,1l-0.4,0.7c-0.1,0.1-0.1,0.3-0.1,0.5v0.2
								h-0.5l-0.9-0.1l-2-0.3l-1.2-0.2l-1.8-0.2L197.5,229.8z"/>
							<g id="Warstwa-2">
								<path class="st16" d="M196.6,223.8c-0.2,0.3,0.2,1,0.5,1s0.2-0.2,0.5-0.4c0.4-0.2,0.9-0.1,1.1,0.3c0,0,0,0,0,0l0.1,0.1
									c0.1,0.2,0.1,0.4-0.1,1.3s-0.2,1-0.3,1s-0.3-0.9-0.7-1c-0.2,0-0.4,0.2-0.4,0.5c0,0.3,0.1,0.6,0.3,0.8
									c0.2,0.2,0.4,0.4,0.7,0.5c0.2,0.1,0.3,0,1.2,0c0.4,0,0.8,0,1.2-0.1c0.2-0.1,0.4-0.2,0.5-0.3c0.2-0.2,0.3-0.4,0.3-0.7
									c0.1-0.3,0.1-0.6,0.1-0.9c0-0.4-0.1-0.5-0.1-0.6c-0.1-0.1-0.2-0.1-0.4-0.1c-0.1,0-0.2,0.2-0.2,0.3c-0.1,0.2-0.1,0.5,0,0.7
									c0.1,0.2,0.2,0.2,0.1,0.4c0,0.1,0,0.1-0.1,0.1c0,0-0.1,0-0.5-0.3c-0.2-0.1-0.3-0.3-0.4-0.4c-0.2-0.2-0.4-0.4-0.5-0.6
									c0-0.1,0-0.1-0.1-0.4s-0.1-0.3-0.2-0.4c-0.1-0.2-0.1-0.5,0-0.8c0.1-0.2,0.2-0.3,0.4-0.4c0.2-0.1,0.5-0.1,0.7,0
									c0.5,0.2,0.7,0.9,0.8,0.8s0.1-0.4,0-0.6s-0.2-0.2-0.2-0.4c0-0.1,0-0.3,0-0.4c0-0.1,0-0.2,0-0.2s-0.2,0-0.5,0
									c-0.3,0-0.6,0-0.9,0l-0.4,0.1c-0.2,0-0.3,0.1-0.5,0.1c-0.2,0.1-0.4,0.1-0.5,0.2l-0.4,0.2l-0.5,0.3
									C196.6,223.7,196.6,223.7,196.6,223.8z"/>
								<path class="st16" d="M206.9,223.8c0.2,0.3-0.2,1-0.5,1s-0.2-0.2-0.5-0.4c-0.2-0.1-0.5-0.1-0.7,0c-0.2,0.1-0.3,0.3-0.4,0.5
									c-0.1,0.2-0.1,0.4,0.1,1.3s0.2,0.9,0.3,1s0.3-0.9,0.6-1c0.2,0,0.4,0.2,0.4,0.5c0,0.3-0.1,0.6-0.3,0.8
									c-0.2,0.2-0.4,0.4-0.7,0.5c-0.2,0.1-0.2,0.1-1.1,0c-0.4,0-0.7,0-1.1-0.1c-0.2-0.1-0.4-0.2-0.5-0.3c-0.2-0.2-0.3-0.4-0.3-0.7
									c0-0.3,0-0.6,0-0.9c0-0.2,0-0.4,0.1-0.5c0.1-0.1,0.2-0.1,0.4-0.1c0.1,0,0.2,0.2,0.2,0.3c0.1,0.2,0.1,0.5,0.1,0.7
									c-0.1,0.2-0.2,0.2-0.1,0.4c0,0.1,0,0.1,0.1,0.1c0.1,0,0.1,0,0.5-0.3c0.1-0.1,0.3-0.3,0.4-0.4c0.2-0.2,0.4-0.4,0.5-0.6
									c0-0.1,0-0.1,0.1-0.4s0.1-0.3,0.1-0.4c0.1-0.2,0.1-0.5,0-0.8c-0.1-0.2-0.2-0.3-0.4-0.4c-0.2-0.1-0.4-0.1-0.6,0
									c-0.5,0.2-0.6,0.9-0.8,0.8s-0.1-0.4,0-0.6s0.2-0.2,0.2-0.4c0-0.1,0-0.3,0-0.4c0-0.1,0-0.2,0-0.2s0.2,0,0.5,0.1s0.3,0,0.8,0
									l0.4,0.1c0.1,0,0.3,0.1,0.4,0.1c0.2,0.1,0.3,0.1,0.5,0.2c0.1,0.1,0.3,0.1,0.4,0.2l0.4,0.3
									C206.8,223.7,206.8,223.7,206.9,223.8z"/>
							</g>
							<path class="st8" d="M198.1,229.1c-0.1-0.1-0.1-0.3-0.1-0.4c0.2-0.4,1.6-0.6,1.9-0.1c0.1,0.1,0.1,0.2,0.1,0.3
								c-0.1,0.4-1.1,0.3-1.1,0.3C198.6,229.3,198.4,229.2,198.1,229.1z"/>
							<path class="st8" d="M200.9,229.1c-0.1-0.1-0.1-0.3-0.1-0.4c0.2-0.4,1.6-0.6,1.9,0c0.1,0.1,0.1,0.2,0.1,0.3
								c-0.1,0.4-1.1,0.3-1.1,0.3C201.4,229.3,201.1,229.2,200.9,229.1z"/>
							<path class="st8" d="M203.7,229.2c-0.1-0.1-0.2-0.3-0.1-0.4c0.2-0.4,1.6-0.6,1.9,0c0.1,0.1,0.1,0.2,0.1,0.3
								c-0.1,0.4-1.1,0.3-1.1,0.3C204.1,229.4,203.9,229.3,203.7,229.2z"/>
						</g>
					</g>
				</g>
			</g>
		</g>
	</g>
</g>
<g id="Warstwa_2">
	<rect class="st17" width="900" height="600"/>
</g>
</svg>
