<?xml version="1.0" encoding="utf-8"?>
<!-- Generator: Adobe Illustrator 24.3.0, SVG Export Plug-In . SVG Version: 6.00 Build 0)  -->
<svg version="1.1" id="Warstwa_1" xmlns="http://www.w3.org/2000/svg" xmlns:xlink="http://www.w3.org/1999/xlink" x="0px" y="0px"
	 viewBox="0 0 2433 500" style="enable-background:new 0 0 2433 500;" xml:space="preserve">
<style type="text/css">
	.st0{fill:#FFFFFF;stroke:#D10707;stroke-width:50;stroke-linecap:square;stroke-linejoin:round;}
	.st1{fill:#FFFFFF;}
	.st2{fill:#D10707;}
</style>
<g id="Napis_Konzarz">
	<g>
		<path class="st0" d="M2211.4,75.7h187.4l9.2,84.5l-110.6,170.5h92.2v93.7h-188.9v-89.1l90.6-170.5h-79.9V75.7z"/>
	</g>
	<path class="st1" d="M2211.4,75.7h187.4l9.2,84.5l-110.6,170.5h92.2v93.7h-188.9v-89.1l90.6-170.5h-79.9V75.7z"/>
	<g>
		<path class="st0" d="M1926.5,80.3v344.1h89.1V308.2l70.7,116.2h89.1c-33.1-61.9-55.6-106.3-67.6-133.1
			c63.9-70.1,42.4-225.2-92.2-215.6L1926.5,80.3z"/>
	</g>
	<path class="st1" d="M1926.5,80.3v344.1h89.1V308.2l70.7,116.2h89.1c-33.1-61.9-55.6-106.3-67.6-133.1
		c63.9-70.1,42.4-225.2-92.2-215.6L1926.5,80.3z"/>
	<path class="st2" d="M2015.6,237.5c52.4,0,51.6-76.8,0-76.8V237.5z"/>
	<g>
		<path class="st0" d="M1614.3,423.1l79.9-350.2h133.6l73.7,350.2h-106l-12.3-70.7h-55.3l-10.8,70.7H1614.3z"/>
	</g>
	<path class="st1" d="M1614.3,423.1l79.9-350.2h133.6l73.7,350.2h-106l-12.3-70.7h-55.3l-10.8,70.7H1614.3z"/>
	<path class="st2" d="M1757.9,166.6l-18.4,93.7h36.9L1757.9,166.6z"/>
	<g>
		<path class="st0" d="M1409.8,75.3h187.4l9.2,84.5l-110.6,170.5h92.1V424h-188.9v-89.1l90.6-170.5h-79.9V75.3z"/>
	</g>
	<path class="st1" d="M1409.8,75.3h187.4l9.2,84.5l-110.6,170.5h92.1V424h-188.9v-89.1l90.6-170.5h-79.9V75.3z"/>
	<g>
		<path class="st0" d="M1138.5,83.6v339.5h90.6l-7.7-119.8l66,112.1l84.5,4.6V77.5l-87.6-4.6v149L1223,82.1L1138.5,83.6z"/>
	</g>
	<path class="st1" d="M1138.5,83.6v339.5h90.6l-7.7-119.8l66,112.1l84.5,4.6V77.5l-87.6-4.6v149L1223,82.1L1138.5,83.6z"/>
	<g>
		<path class="st0" d="M965.7,73c10.7-1.3,21.5-1.3,32.3,0c126,16,180.1,335.6,9.2,350.2c-12.3,1-24.6,1-36.9,0
			C818.7,410.7,817.6,89.4,965.7,73z"/>
	</g>
	<path class="st1" d="M965.7,73c10.7-1.3,21.5-1.3,32.3,0c126,16,180.1,335.6,9.2,350.2c-12.3,1-24.6,1-36.9,0
		C818.7,410.7,817.6,89.4,965.7,73z"/>
	<path class="st2" d="M981.1,195.2c-36.4,0-28.7,108.7,5.5,108.7C1023.9,304,1023,195.2,981.1,195.2z"/>
	<g>
		<path class="st0" d="M650,79v342.5l84.5-4.6v-93.7l52.2,93.8h90.6l-76.8-185.9l79.9-156.7h-95.2l-56.8,101.4V74.4L650,79z"/>
	</g>
	<path class="st1" d="M650,79v342.5l84.5-4.6v-93.7l52.2,93.8h90.6l-76.8-185.9l79.9-156.7h-95.2l-56.8,101.4V74.4L650,79z"/>
</g>
<g id="Logo_Konzarz_1_Obramowanie">
	<g id="TŁO_Obramowanie">
		<path d="M15,7.5h468c4.1,0,7.5,3.4,7.5,7.5v470c0,4.1-3.4,7.5-7.5,7.5H15c-4.1,0-7.5-3.4-7.5-7.5V15C7.5,10.9,10.9,7.5,15,7.5z"/>
		<path class="st2" d="M483,15v470H15V15H483 M483,0H15C6.7,0,0,6.7,0,15v470c0,8.3,6.7,15,15,15h468c8.3,0,15-6.7,15-15V15
			C498,6.7,491.3,0,483,0z"/>
	</g>
	<path id="Obramowanie_KZ" class="st2" d="M100.3,145.6v212.5c0,6.2,5,11.2,11.2,11.2l55.9-3.7c8-0.6,11.1-5.6,11.2-15.8
		c-0.2,8.5,6.5,15.6,15.1,15.8c0.3,0,0.5,0,0.8,0h181.7c7,0.1,10.3-5.1,10.2-10.2v-62.4c0-5.5-3.6-11.2-10.2-11.2h-33.6l52.2-79.2
		l0.3-0.4c1.6-2.7,2.7-5.4,2.5-8l-5.6-55c-1.1-6.3-5.7-8.4-11.2-8.4H251.3v68c0,6.2,4.9,11.2,11.1,11.3c0,0,0,0,0.1,0h27l-45.7,86.7
		l-23.3-55.9l30.8-59.7v-50.4h-57.8c-3.9,0-6.5,3.1-8.4,6.5l-9.3,15.9v-11.2c0.1-6.6-5-11.8-11.2-11.2l-53.1,2.8
		C104.3,134.1,100.4,138.9,100.3,145.6z"/>
	<path id="Z" class="st1" d="M265.3,144.7H379l4.7,48.5l-67.1,102.5h56.9v56.9H258.8v-54.1l55-102.5h-48.5V144.7z"/>
	<path id="K" class="st1" d="M114.3,147.5v207.8l50.3-3.7v-57.8l32.6,58.7h54.1l-46.6-112.8l48.5-95.1h-55.9l-35.4,60.6l-0.9-60.6
		L114.3,147.5z"/>
</g>
</svg>
