<svg xmlns="http://www.w3.org/2000/svg" viewBox="0 0 500 500"><defs><style>.cls-1{fill:#d10707;}.cls-2{fill:#fff;}</style></defs><g id="Tło"><rect width="500" height="500"/></g><g id="KZ"><path id="Obramowanie" class="cls-1" d="M95,139V367a12,12,0,0,0,12,12l60-4c8.62-.69,11.95-6,12-17a16.6,16.6,0,0,0,17,17H391c7.56.06,11-5.49,11-11V297c-.05-5.95-3.84-12-11-12H355l56-85,.32-.4c1.77-2.87,2.89-5.75,2.68-8.6l-6-59c-1.22-6.75-6.09-9.06-12-9H257v73a12,12,0,0,0,12,12h29l-49,93-25-60,33-64V123H195c-4.24,0-6.95,3.35-9,7l-10,17V135c.12-7.06-5.38-12.69-12-12l-57,3C99.28,126.56,95.06,131.81,95,139Z" transform="translate(0)"/><path id="K" class="cls-2" d="M110,141V364l54-4V298l35,63h58L207,240l52-102H199l-38,65-1-65Z" transform="translate(0)"/><path id="Z" class="cls-2" d="M272,138H394l5,52L327,300h61v61H265V303l59-110H272Z" transform="translate(0)"/></g></svg>